<svg xmlns="http://www.w3.org/2000/svg" viewBox="0 0 1400 900">
<g data-layer="Wall" stroke="#333" fill="none" stroke-width="1"><line x1="655.0" y1="357.7" x2="644.5" y2="347.2"/><line x1="655.9" y1="356.8" x2="645.4" y2="346.3"/><line x1="655.4" y1="357.2" x2="644.9" y2="346.7"/><line x1="381.5" y1="338.9" x2="381.5" y2="395.5"/><line x1="411.0" y1="396.2" x2="411.0" y2="338.9"/><line x1="137.6" y1="350.0" x2="148.1" y2="339.6"/><line x1="137.1" y1="349.6" x2="147.6" y2="339.1"/><line x1="136.7" y1="349.2" x2="147.2" y2="338.7"/><line x1="511.0" y1="327.0" x2="511.0" y2="365.8"/><line x1="509.3" y1="327.0" x2="509.3" y2="365.8"/><line x1="535.1" y1="225.7" x2="708.5" y2="399.1"/><line x1="699.7" y1="408.8" x2="617.6" y2="326.7"/><line x1="365.9" y1="326.2" x2="365.9" y2="384.4"/><line x1="426.6" y1="326.2" x2="426.6" y2="384.4"/><line x1="283.3" y1="327.0" x2="283.3" y2="365.8"/><line x1="281.6" y1="327.0" x2="281.6" y2="365.8"/><line x1="423.3" y1="326.2" x2="423.3" y2="420.7"/><line x1="369.3" y1="326.2" x2="369.3" y2="420.7"/><line x1="92.8" y1="401.2" x2="175.0" y2="319.1"/><line x1="257.5" y1="225.7" x2="84.1" y2="399.1"/><polyline fill="none" points="644.5,345.5 645.4,346.3 644.5,347.2 643.7,346.3"/><line x1="411.0" y1="338.9" x2="381.5" y2="338.9"/><polyline fill="none" points="148.1,337.9 147.2,338.7 148.1,339.6 148.9,338.7"/><polyline fill="none" points="633.2,334.2 634.0,335.0 633.2,335.8 632.4,335.0"/><polyline fill="none" points="613.5,320.3 609.3,320.3 609.3,325.4 613.5,325.4"/><polyline fill="none" points="621.9,322.8 622.7,323.7 621.9,324.5 621.0,323.7"/><line x1="613.5" y1="322.7" x2="615.2" y2="324.4"/><line x1="615.1" y1="309.0" x2="625.2" y2="319.1"/><line x1="609.8" y1="319.0" x2="615.1" y2="313.8"/><line x1="615.1" y1="313.8" x2="620.4" y2="319.1"/><polyline fill="none" points="611.4,312.3 610.5,311.5 609.7,312.3 610.5,313.2"/><polyline fill="none" points="600.0,301.0 599.2,300.2 598.4,301.0 599.2,301.8"/><line x1="606.3" y1="317.8" x2="615.1" y2="309.0"/><line x1="599.2" y1="301.8" x2="609.7" y2="312.3"/><line x1="599.6" y1="301.4" x2="610.1" y2="311.9"/><line x1="600.0" y1="301.0" x2="610.5" y2="311.5"/><line x1="616.4" y1="327.9" x2="625.2" y2="319.1"/><polyline fill="none" points="616.4,327.9 606.3,327.9 606.3,317.8"/><line x1="615.2" y1="324.4" x2="620.4" y2="319.1"/><line x1="609.8" y1="319.0" x2="611.1" y2="320.3"/><line x1="633.2" y1="334.2" x2="622.7" y2="323.7"/><line x1="632.8" y1="334.6" x2="622.3" y2="324.1"/><line x1="632.4" y1="335.0" x2="621.9" y2="324.5"/><line x1="588.7" y1="289.7" x2="599.2" y2="300.2"/><line x1="588.3" y1="290.1" x2="598.8" y2="300.6"/><line x1="587.9" y1="290.5" x2="598.4" y2="301.0"/><polyline fill="none" points="460.4,319.5 467.1,319.5 467.1,326.2 460.4,326.2"/><polyline fill="none" points="506.8,318.6 513.5,318.6 513.5,327.0 506.8,327.0"/><line x1="576.5" y1="279.2" x2="587.0" y2="289.7"/><polyline fill="none" points="577.4,278.3 576.5,277.5 575.7,278.3 576.5,279.2"/><polyline fill="none" points="566.0,267.0 565.2,266.2 564.4,267.0 565.2,267.8"/><line x1="565.6" y1="267.4" x2="576.1" y2="277.9"/><line x1="565.2" y1="267.8" x2="575.7" y2="278.3"/><line x1="566.0" y1="267.0" x2="576.5" y2="277.5"/><polyline fill="none" points="554.7,255.7 553.9,254.8 553.0,255.7 553.9,256.5"/><line x1="554.3" y1="256.1" x2="564.8" y2="266.6"/><line x1="554.7" y1="255.7" x2="565.2" y2="266.2"/><line x1="553.9" y1="256.5" x2="564.4" y2="267.0"/><polyline fill="none" points="543.4,244.3 542.5,243.5 541.7,244.3 542.5,245.2"/><line x1="543.0" y1="244.8" x2="553.5" y2="255.3"/><line x1="543.4" y1="244.3" x2="553.9" y2="254.8"/><line x1="542.5" y1="245.2" x2="553.0" y2="255.7"/><line x1="535.1" y1="228.1" x2="530.3" y2="232.9"/><polyline fill="none" points="532.0,233.0 531.2,232.2 530.4,233.0 531.2,233.8"/><line x1="535.1" y1="225.7" x2="533.9" y2="226.9"/><line x1="524.2" y1="235.6" x2="528.6" y2="231.2"/><line x1="512.7" y1="224.1" x2="524.2" y2="235.6"/><line x1="512.7" y1="221.8" x2="523.0" y2="232.1"/><line x1="535.1" y1="228.1" x2="515.6" y2="208.5"/><line x1="529.8" y1="225.2" x2="514.9" y2="210.2"/><line x1="523.0" y1="232.1" x2="529.8" y2="225.2"/><line x1="530.3" y1="232.9" x2="528.6" y2="231.2"/><line x1="531.6" y1="233.4" x2="542.1" y2="243.9"/><line x1="532.0" y1="233.0" x2="542.5" y2="243.5"/><line x1="531.2" y1="233.8" x2="541.7" y2="244.3"/><line x1="461.2" y1="224.6" x2="459.5" y2="224.6"/><line x1="462.9" y1="210.2" x2="462.9" y2="218.2"/><polyline fill="none" points="461.2,218.2 466.3,218.2 466.3,225.0 461.2,225.0"/><line x1="459.5" y1="211.9" x2="459.5" y2="224.6"/><line x1="441.0" y1="224.6" x2="437.6" y2="224.6"/><line x1="441.0" y1="211.9" x2="441.0" y2="224.6"/><line x1="437.6" y1="208.5" x2="437.6" y2="224.6"/><line x1="441.0" y1="224.6" x2="459.5" y2="211.5"/><line x1="459.5" y1="211.9" x2="441.0" y2="211.9"/><line x1="459.5" y1="224.6" x2="441.0" y2="224.6"/><line x1="507.6" y1="222.9" x2="466.3" y2="222.9"/><line x1="507.6" y1="224.6" x2="466.3" y2="224.6"/><polyline fill="none" points="507.6,218.2 512.7,218.2 512.7,225.0 507.6,225.0"/><line x1="514.9" y1="210.2" x2="462.9" y2="210.2"/><line x1="515.6" y1="208.5" x2="437.6" y2="208.5"/><line x1="525.4" y1="234.4" x2="607.5" y2="316.6"/><line x1="576.9" y1="278.8" x2="587.4" y2="289.3"/><polyline fill="none" points="588.7,289.7 587.9,288.8 587.0,289.7 587.9,290.5"/><line x1="577.4" y1="278.3" x2="587.9" y2="288.8"/><polyline fill="none" points="421.6,319.5 428.3,319.5 428.3,326.2 421.6,326.2"/><polyline fill="none" points="364.2,319.5 371.0,319.5 371.0,326.2 364.2,326.2"/><line x1="421.6" y1="319.5" x2="371.0" y2="319.5"/><line x1="421.6" y1="321.1" x2="371.0" y2="321.1"/><line x1="421.6" y1="324.5" x2="371.0" y2="324.5"/><line x1="421.6" y1="326.2" x2="371.0" y2="326.2"/><polyline fill="none" points="325.4,319.5 332.2,319.5 332.2,326.2 325.4,326.2"/><polyline fill="none" points="279.0,318.6 285.8,318.6 285.8,327.0 279.0,327.0"/><line x1="403.9" y1="224.6" x2="398.8" y2="224.6"/><line x1="400.5" y1="217.0" x2="400.5" y2="221.2"/><line x1="392.1" y1="217.0" x2="392.1" y2="221.2"/><line x1="400.5" y1="221.2" x2="398.8" y2="221.2"/><line x1="392.1" y1="221.2" x2="393.8" y2="221.2"/><line x1="400.5" y1="217.0" x2="392.1" y2="217.0"/><polyline fill="none" points="393.8,218.7 398.8,218.7 398.8,224.6 393.8,224.6"/><line x1="403.9" y1="213.6" x2="403.9" y2="224.6"/><line x1="388.7" y1="213.6" x2="388.7" y2="224.6"/><line x1="355.0" y1="208.5" x2="355.0" y2="224.6"/><line x1="388.7" y1="215.2" x2="355.0" y2="215.2"/><line x1="388.7" y1="214.4" x2="355.0" y2="214.4"/><line x1="388.7" y1="214.8" x2="355.0" y2="214.8"/><line x1="388.7" y1="224.6" x2="393.8" y2="224.6"/><line x1="403.9" y1="213.6" x2="388.7" y2="213.6"/><line x1="351.6" y1="211.9" x2="351.6" y2="224.6"/><line x1="331.3" y1="224.6" x2="333.0" y2="224.6"/><line x1="329.7" y1="210.2" x2="329.7" y2="218.2"/><polyline fill="none" points="326.3,218.2 331.3,218.2 331.3,225.0 326.3,225.0"/><line x1="333.0" y1="211.9" x2="333.0" y2="224.6"/><line x1="351.6" y1="224.6" x2="333.0" y2="211.9"/><line x1="333.0" y1="211.9" x2="351.6" y2="211.9"/><line x1="333.0" y1="224.6" x2="351.6" y2="224.6"/><polyline fill="none" points="279.9,218.2 285.0,218.2 285.0,225.0 279.9,225.0"/><line x1="277.7" y1="210.2" x2="329.7" y2="210.2"/><line x1="285.0" y1="224.6" x2="326.3" y2="224.6"/><line x1="285.0" y1="222.9" x2="326.3" y2="222.9"/><line x1="351.6" y1="224.6" x2="355.0" y2="224.6"/><line x1="277.0" y1="208.5" x2="355.0" y2="208.5"/><polyline fill="none" points="179.1,312.7 183.3,312.7 183.3,317.7 179.1,317.7"/><line x1="179.1" y1="314.2" x2="177.0" y2="316.3"/><polyline fill="none" points="159.4,326.5 158.5,327.4 159.4,328.2 160.2,327.4"/><polyline fill="none" points="170.7,315.2 169.9,316.1 170.7,316.9 171.6,316.1"/><line x1="160.2" y1="327.4" x2="170.7" y2="316.9"/><line x1="159.8" y1="327.0" x2="170.3" y2="316.5"/><line x1="159.4" y1="326.5" x2="169.9" y2="316.1"/><line x1="186.3" y1="310.2" x2="177.5" y2="301.4"/><line x1="182.3" y1="311.0" x2="177.5" y2="306.2"/><polyline fill="none" points="181.2,304.7 182.0,303.9 182.9,304.7 182.0,305.6"/><polyline fill="none" points="192.5,293.4 193.4,292.6 194.2,293.4 193.4,294.2"/><line x1="192.5" y1="293.4" x2="182.0" y2="303.9"/><line x1="193.0" y1="293.8" x2="182.5" y2="304.3"/><line x1="193.4" y1="294.2" x2="182.9" y2="304.7"/><line x1="177.5" y1="306.2" x2="172.2" y2="311.5"/><line x1="177.5" y1="301.4" x2="167.4" y2="311.5"/><line x1="176.2" y1="320.3" x2="167.4" y2="311.5"/><polyline fill="none" points="176.2,320.3 186.3,320.3 186.3,310.2"/><line x1="177.0" y1="316.3" x2="172.2" y2="311.5"/><line x1="182.3" y1="311.0" x2="180.7" y2="312.7"/><polyline fill="none" points="237.9,255.7 238.7,254.8 239.5,255.7 238.7,256.5"/><polyline fill="none" points="249.2,244.3 250.0,243.5 250.9,244.3 250.0,245.2"/><line x1="250.0" y1="245.2" x2="239.5" y2="255.7"/><line x1="249.2" y1="244.3" x2="238.7" y2="254.8"/><line x1="249.6" y1="244.8" x2="239.1" y2="255.3"/><line x1="226.5" y1="259.4" x2="216.0" y2="269.9"/><polyline fill="none" points="226.5,259.4 227.4,258.6 228.2,259.4 227.4,260.2"/><line x1="227.4" y1="260.2" x2="216.9" y2="270.7"/><line x1="227.0" y1="259.8" x2="216.5" y2="270.3"/><line x1="215.2" y1="270.7" x2="204.7" y2="281.2"/><polyline fill="none" points="203.9,282.1 204.7,281.2 205.5,282.1 204.7,282.9"/><line x1="216.0" y1="271.6" x2="205.5" y2="282.1"/><line x1="215.6" y1="271.1" x2="205.1" y2="281.6"/><polyline fill="none" points="215.2,270.7 216.0,269.9 216.9,270.7 216.0,271.6"/><line x1="238.7" y1="256.5" x2="228.2" y2="267.0"/><line x1="237.9" y1="255.7" x2="227.4" y2="266.2"/><line x1="238.3" y1="256.1" x2="227.8" y2="266.6"/><line x1="269.6" y1="232.1" x2="262.7" y2="225.2"/><line x1="257.5" y1="228.1" x2="262.3" y2="232.9"/><line x1="262.3" y1="232.9" x2="264.0" y2="231.2"/><line x1="268.4" y1="235.6" x2="264.0" y2="231.2"/><polyline fill="none" points="260.5,233.0 261.4,232.2 262.2,233.0 261.4,233.8"/><line x1="257.5" y1="225.7" x2="258.7" y2="226.9"/><line x1="261.4" y1="233.8" x2="250.9" y2="244.3"/><line x1="260.5" y1="233.0" x2="250.0" y2="243.5"/><line x1="260.9" y1="233.4" x2="250.5" y2="243.9"/><line x1="267.2" y1="234.4" x2="185.1" y2="316.6"/><line x1="204.7" y1="282.9" x2="194.2" y2="293.4"/><line x1="204.3" y1="282.5" x2="193.8" y2="293.0"/><line x1="203.9" y1="282.1" x2="193.4" y2="292.6"/><line x1="262.7" y1="225.2" x2="277.7" y2="210.2"/><line x1="257.5" y1="228.1" x2="277.0" y2="208.5"/><line x1="279.9" y1="224.1" x2="268.4" y2="235.6"/><line x1="279.9" y1="221.8" x2="269.6" y2="232.1"/><line x1="403.9" y1="214.8" x2="437.6" y2="214.8"/><line x1="403.9" y1="214.4" x2="437.6" y2="214.4"/><line x1="403.9" y1="215.2" x2="437.6" y2="215.2"/><line x1="333.0" y1="208.5" x2="459.5" y2="208.5"/><line x1="643.7" y1="346.3" x2="633.2" y2="335.8"/><line x1="644.1" y1="345.9" x2="633.6" y2="335.4"/><line x1="644.5" y1="345.5" x2="634.0" y2="335.0"/><line x1="148.1" y1="337.9" x2="158.5" y2="327.4"/><line x1="148.5" y1="338.3" x2="159.0" y2="327.8"/><line x1="148.9" y1="338.7" x2="159.4" y2="328.2"/><polyline fill="none" points="460.4,521.9 467.1,521.9 467.1,528.6 460.4,528.6"/><polyline fill="none" points="611.4,738.2 610.5,739.0 609.7,738.2 610.5,737.3"/><line x1="587.9" y1="760.0" x2="598.4" y2="749.5"/><line x1="588.3" y1="760.4" x2="598.8" y2="749.9"/><line x1="588.7" y1="760.8" x2="599.2" y2="750.3"/><polyline fill="none" points="600.0,749.5 599.2,750.3 598.4,749.5 599.2,748.7"/><line x1="600.0" y1="749.5" x2="610.5" y2="739.0"/><line x1="599.6" y1="749.1" x2="610.1" y2="738.6"/><line x1="599.2" y1="748.7" x2="609.7" y2="738.2"/><polyline fill="none" points="668.8,682.3 669.7,681.5 668.8,680.7 668.0,681.5"/><line x1="708.5" y1="651.4" x2="707.3" y2="650.2"/><line x1="709.0" y1="646.1" x2="724.0" y2="631.2"/><line x1="706.1" y1="651.4" x2="725.6" y2="631.9"/><polyline fill="none" points="689.8,659.7 690.7,658.9 689.8,658.0 689.0,658.9"/><polyline fill="none" points="678.5,671.0 679.3,670.2 678.5,669.3 677.7,670.2"/><line x1="689.4" y1="659.3" x2="678.9" y2="669.8"/><line x1="689.8" y1="659.7" x2="679.3" y2="670.2"/><line x1="689.0" y1="658.9" x2="678.5" y2="669.3"/><line x1="698.6" y1="640.5" x2="703.0" y2="644.9"/><line x1="701.3" y1="646.6" x2="703.0" y2="644.9"/><polyline fill="none" points="701.2,648.4 702.0,647.5 701.2,646.7 700.3,647.5"/><line x1="700.8" y1="647.9" x2="690.3" y2="658.4"/><line x1="701.2" y1="648.4" x2="690.7" y2="658.9"/><line x1="700.3" y1="647.5" x2="689.8" y2="658.0"/><line x1="711.6" y1="629.8" x2="702.1" y2="639.3"/><line x1="709.6" y1="629.4" x2="698.6" y2="640.5"/><line x1="706.1" y1="651.4" x2="701.3" y2="646.6"/><line x1="702.1" y1="639.3" x2="709.0" y2="646.1"/><line x1="678.1" y1="670.6" x2="667.6" y2="681.1"/><line x1="678.5" y1="671.0" x2="668.0" y2="681.5"/><line x1="677.7" y1="670.2" x2="667.2" y2="680.7"/><polyline fill="none" points="633.2,716.3 634.0,715.5 633.2,714.7 632.4,715.5"/><polyline fill="none" points="657.5,693.7 658.3,692.8 657.5,692.0 656.7,692.8"/><polyline fill="none" points="646.2,705.0 647.0,704.2 646.2,703.3 645.3,704.2"/><line x1="657.1" y1="693.3" x2="646.6" y2="703.8"/><line x1="657.5" y1="693.7" x2="647.0" y2="704.2"/><line x1="656.7" y1="692.8" x2="646.2" y2="703.3"/><line x1="644.5" y1="705.0" x2="634.0" y2="715.5"/><line x1="644.1" y1="704.6" x2="633.6" y2="715.1"/><line x1="643.7" y1="704.2" x2="633.2" y2="714.7"/><polyline fill="none" points="613.5,725.1 609.3,725.1 609.3,730.2 613.5,730.2"/><line x1="615.2" y1="726.1" x2="620.4" y2="731.4"/><line x1="616.4" y1="722.6" x2="625.2" y2="731.4"/><polyline fill="none" points="621.9,727.7 622.7,726.8 621.9,726.0 621.0,726.8"/><polyline fill="none" points="616.4,722.6 606.3,722.6 606.3,732.7"/><line x1="632.4" y1="715.5" x2="621.9" y2="726.0"/><line x1="632.8" y1="715.9" x2="622.3" y2="726.4"/><line x1="633.2" y1="716.3" x2="622.7" y2="726.8"/><line x1="699.7" y1="641.7" x2="617.6" y2="723.8"/><line x1="668.4" y1="681.9" x2="657.9" y2="692.4"/><line x1="668.8" y1="682.3" x2="658.3" y2="692.8"/><line x1="668.0" y1="681.5" x2="657.5" y2="692.0"/><line x1="606.3" y1="732.7" x2="615.1" y2="741.5"/><line x1="610.2" y1="731.9" x2="615.1" y2="736.7"/><line x1="615.1" y1="736.7" x2="620.4" y2="731.4"/><line x1="615.1" y1="741.5" x2="625.2" y2="731.4"/><polyline fill="none" points="554.7,794.8 553.9,795.7 553.0,794.8 553.9,794.0"/><line x1="535.1" y1="824.8" x2="533.9" y2="823.6"/><line x1="512.7" y1="828.7" x2="523.0" y2="818.4"/><line x1="529.8" y1="825.3" x2="514.9" y2="840.3"/><line x1="535.1" y1="822.4" x2="515.6" y2="842.0"/><line x1="523.0" y1="818.4" x2="529.8" y2="825.3"/><line x1="531.2" y1="816.7" x2="541.7" y2="806.2"/><line x1="532.0" y1="817.5" x2="542.5" y2="807.0"/><line x1="531.6" y1="817.1" x2="542.1" y2="806.6"/><polyline fill="none" points="543.4,806.2 542.5,807.0 541.7,806.2 542.5,805.3"/><line x1="512.7" y1="826.4" x2="524.2" y2="814.9"/><line x1="524.2" y1="814.9" x2="528.6" y2="819.3"/><line x1="535.1" y1="822.4" x2="530.3" y2="817.6"/><line x1="530.3" y1="817.6" x2="528.6" y2="819.3"/><polyline fill="none" points="532.0,817.5 531.2,818.3 530.4,817.5 531.2,816.7"/><line x1="542.5" y1="805.3" x2="553.0" y2="794.8"/><line x1="543.4" y1="806.2" x2="553.9" y2="795.7"/><line x1="543.0" y1="805.7" x2="553.5" y2="795.2"/><polyline fill="none" points="577.4,772.2 576.5,773.0 575.7,772.2 576.5,771.3"/><polyline fill="none" points="566.0,783.5 565.2,784.3 564.4,783.5 565.2,782.7"/><line x1="565.2" y1="782.7" x2="575.7" y2="772.2"/><line x1="566.0" y1="783.5" x2="576.5" y2="773.0"/><line x1="565.6" y1="783.1" x2="576.1" y2="772.6"/><line x1="576.5" y1="771.3" x2="587.0" y2="760.8"/><line x1="553.9" y1="794.0" x2="564.4" y2="783.5"/><line x1="554.7" y1="794.8" x2="565.2" y2="784.3"/><line x1="554.3" y1="794.4" x2="564.8" y2="783.9"/><line x1="462.9" y1="840.3" x2="462.9" y2="832.3"/><line x1="461.2" y1="825.9" x2="459.5" y2="825.9"/><polyline fill="none" points="461.2,825.5 466.3,825.5 466.3,832.3 461.2,832.3"/><line x1="459.5" y1="838.6" x2="459.5" y2="825.9"/><line x1="441.0" y1="825.9" x2="437.6" y2="825.9"/><line x1="437.6" y1="842.0" x2="437.6" y2="825.9"/><line x1="441.0" y1="838.6" x2="441.0" y2="825.9"/><line x1="441.0" y1="825.9" x2="459.5" y2="839.0"/><line x1="459.5" y1="825.9" x2="441.0" y2="825.9"/><line x1="459.5" y1="831.0" x2="441.0" y2="831.0"/><line x1="507.6" y1="825.9" x2="466.3" y2="825.9"/><line x1="507.6" y1="827.6" x2="466.3" y2="827.6"/><polyline fill="none" points="507.6,825.5 512.7,825.5 512.7,832.3 507.6,832.3"/><line x1="515.6" y1="834.3" x2="437.6" y2="834.3"/><line x1="514.9" y1="832.7" x2="462.9" y2="832.7"/><line x1="509.3" y1="683.0" x2="511.0" y2="683.0"/><line x1="511.0" y1="724.3" x2="511.0" y2="683.0"/><line x1="509.3" y1="666.1" x2="511.0" y2="666.1"/><line x1="511.0" y1="666.1" x2="511.0" y2="630.7"/><line x1="509.3" y1="666.1" x2="509.3" y2="630.7"/><line x1="511.0" y1="664.4" x2="511.0" y2="630.7"/><line x1="509.3" y1="662.7" x2="509.3" y2="630.7"/><line x1="511.0" y1="664.4" x2="511.0" y2="630.7"/><line x1="509.3" y1="662.7" x2="509.3" y2="630.7"/><polyline fill="none" points="460.4,724.3 467.1,724.3 467.1,731.0 460.4,731.0"/><line x1="430.9" y1="653.4" x2="436.8" y2="653.4"/><line x1="431.3" y1="651.7" x2="436.8" y2="651.7"/><line x1="460.4" y1="629.8" x2="460.4" y2="630.7"/><line x1="434.4" y1="638.2" x2="436.8" y2="638.2"/><line x1="434.0" y1="639.9" x2="436.8" y2="639.9"/><line x1="433.6" y1="641.6" x2="436.8" y2="641.6"/><line x1="433.3" y1="643.3" x2="436.8" y2="643.3"/><line x1="432.9" y1="645.0" x2="436.8" y2="645.0"/><line x1="431.7" y1="650.0" x2="436.8" y2="650.0"/><line x1="432.1" y1="648.3" x2="436.8" y2="648.3"/><line x1="432.5" y1="646.6" x2="436.8" y2="646.6"/><line x1="436.4" y1="629.8" x2="436.8" y2="629.8"/><line x1="436.0" y1="631.5" x2="436.8" y2="631.5"/><line x1="435.6" y1="633.2" x2="436.8" y2="633.2"/><line x1="435.2" y1="634.8" x2="436.8" y2="634.8"/><line x1="434.8" y1="636.5" x2="436.8" y2="636.5"/><line x1="460.4" y1="628.2" x2="438.5" y2="628.2"/><line x1="438.5" y1="628.2" x2="438.5" y2="664.4"/><line x1="436.8" y1="628.2" x2="436.8" y2="662.7"/><line x1="506.8" y1="629.0" x2="467.1" y2="629.0"/><line x1="506.8" y1="630.7" x2="460.4" y2="630.7"/><polyline fill="none" points="509.3,666.1 492.4,666.1 509.3,683.0"/><polyline fill="none" points="506.8,724.3 513.5,724.3 513.5,731.0 506.8,731.0"/><line x1="525.4" y1="816.1" x2="607.5" y2="733.9"/><line x1="577.4" y1="772.2" x2="587.9" y2="761.7"/><line x1="576.9" y1="771.7" x2="587.4" y2="761.3"/><polyline fill="none" points="588.7,760.8 587.9,761.7 587.0,760.8 587.9,760.0"/><line x1="535.1" y1="824.8" x2="708.5" y2="651.4"/><line x1="400.5" y1="833.5" x2="392.1" y2="833.5"/><line x1="392.1" y1="829.3" x2="393.8" y2="829.3"/><line x1="400.5" y1="829.3" x2="398.8" y2="829.3"/><line x1="403.9" y1="825.9" x2="398.8" y2="825.9"/><polyline fill="none" points="393.8,825.9 398.8,825.9 398.8,831.8 393.8,831.8"/><line x1="392.1" y1="833.5" x2="392.1" y2="829.3"/><line x1="400.5" y1="833.5" x2="400.5" y2="829.3"/><line x1="403.9" y1="836.9" x2="403.9" y2="825.9"/><line x1="388.7" y1="836.9" x2="388.7" y2="825.9"/><line x1="355.0" y1="842.0" x2="355.0" y2="825.9"/><line x1="388.7" y1="835.3" x2="355.0" y2="835.3"/><line x1="388.7" y1="836.1" x2="355.0" y2="836.1"/><line x1="388.7" y1="835.7" x2="355.0" y2="835.7"/><line x1="403.9" y1="836.9" x2="388.7" y2="836.9"/><line x1="388.7" y1="825.9" x2="393.8" y2="825.9"/><line x1="351.6" y1="838.6" x2="351.6" y2="825.9"/><line x1="329.7" y1="840.3" x2="329.7" y2="832.3"/><line x1="331.3" y1="825.9" x2="333.0" y2="825.9"/><polyline fill="none" points="326.3,825.5 331.3,825.5 331.3,832.3 326.3,832.3"/><line x1="333.0" y1="838.6" x2="333.0" y2="825.9"/><line x1="351.6" y1="825.9" x2="333.0" y2="838.6"/><line x1="333.0" y1="825.9" x2="351.6" y2="825.9"/><line x1="333.0" y1="831.0" x2="351.6" y2="831.0"/><polyline fill="none" points="279.9,825.5 285.0,825.5 285.0,832.3 279.9,832.3"/><line x1="277.7" y1="832.7" x2="329.7" y2="832.7"/><line x1="285.0" y1="827.6" x2="326.3" y2="827.6"/><line x1="285.0" y1="825.9" x2="326.3" y2="825.9"/><line x1="277.0" y1="834.3" x2="355.0" y2="834.3"/><line x1="351.6" y1="825.9" x2="355.0" y2="825.9"/><polyline fill="none" points="421.6,724.3 428.3,724.3 428.3,731.0 421.6,731.0"/><line x1="395.4" y1="696.5" x2="397.1" y2="696.5"/><line x1="392.1" y1="699.8" x2="400.5" y2="699.8"/><line x1="407.7" y1="688.7" x2="411.0" y2="685.3"/><line x1="414.4" y1="688.7" x2="407.7" y2="688.7"/><line x1="411.0" y1="685.3" x2="414.4" y2="688.7"/><line x1="423.3" y1="689.7" x2="400.5" y2="689.7"/><line x1="423.3" y1="684.7" x2="400.5" y2="684.7"/><line x1="423.3" y1="679.6" x2="400.5" y2="679.6"/><line x1="423.3" y1="699.8" x2="400.5" y2="699.8"/><line x1="423.3" y1="694.8" x2="400.5" y2="694.8"/><polyline fill="none" points="364.2,724.3 371.0,724.3 371.0,731.0 364.2,731.0"/><line x1="369.3" y1="679.6" x2="392.1" y2="679.6"/><line x1="369.3" y1="684.7" x2="392.1" y2="684.7"/><line x1="369.3" y1="689.7" x2="392.1" y2="689.7"/><line x1="381.5" y1="711.6" x2="411.0" y2="711.6"/><line x1="371.0" y1="724.3" x2="421.6" y2="724.3"/><line x1="371.0" y1="731.0" x2="421.6" y2="731.0"/><line x1="371.0" y1="729.4" x2="421.6" y2="729.4"/><line x1="371.0" y1="726.0" x2="421.6" y2="726.0"/><line x1="369.3" y1="694.8" x2="392.1" y2="694.8"/><line x1="407.7" y1="658.3" x2="411.0" y2="655.0"/><line x1="397.1" y1="657.7" x2="395.4" y2="657.7"/><line x1="400.5" y1="654.3" x2="392.1" y2="654.3"/><line x1="414.4" y1="658.3" x2="407.7" y2="658.3"/><line x1="411.0" y1="655.0" x2="414.4" y2="658.3"/><line x1="423.3" y1="674.5" x2="400.5" y2="674.5"/><line x1="423.3" y1="669.5" x2="400.5" y2="669.5"/><line x1="423.3" y1="664.4" x2="400.5" y2="664.4"/><line x1="423.3" y1="659.4" x2="400.5" y2="659.4"/><line x1="426.6" y1="629.8" x2="426.6" y2="662.7"/><circle fill="none" cx="381.5" cy="654.3" r="1.2"/><line x1="355.8" y1="662.7" x2="365.9" y2="662.7"/><line x1="356.0" y1="661.8" x2="365.9" y2="661.8"/><line x1="356.4" y1="660.1" x2="365.9" y2="660.1"/><line x1="356.8" y1="658.5" x2="365.9" y2="658.5"/><line x1="357.3" y1="656.8" x2="365.9" y2="656.8"/><line x1="357.7" y1="655.1" x2="365.9" y2="655.1"/><line x1="358.1" y1="653.4" x2="365.9" y2="653.4"/><line x1="358.5" y1="651.7" x2="365.9" y2="651.7"/><line x1="361.8" y1="638.2" x2="365.9" y2="638.2"/><line x1="361.4" y1="639.9" x2="365.9" y2="639.9"/><line x1="361.0" y1="641.6" x2="365.9" y2="641.6"/><line x1="360.5" y1="643.3" x2="365.9" y2="643.3"/><line x1="360.1" y1="645.0" x2="364.2" y2="645.0"/><line x1="358.9" y1="650.0" x2="365.9" y2="650.0"/><line x1="359.3" y1="648.3" x2="365.9" y2="648.3"/><line x1="359.7" y1="646.6" x2="365.9" y2="646.6"/><line x1="363.8" y1="629.8" x2="364.2" y2="629.8"/><line x1="363.4" y1="631.5" x2="365.9" y2="631.5"/><line x1="363.0" y1="633.2" x2="365.9" y2="633.2"/><line x1="362.6" y1="634.8" x2="365.9" y2="634.8"/><line x1="355.8" y1="628.2" x2="364.2" y2="628.2"/><line x1="362.2" y1="636.5" x2="365.9" y2="636.5"/><line x1="365.9" y1="629.8" x2="365.9" y2="662.7"/><line x1="354.1" y1="628.2" x2="354.1" y2="662.7"/><line x1="355.8" y1="628.2" x2="355.8" y2="662.7"/><line x1="364.2" y1="628.2" x2="355.8" y2="662.7"/><line x1="369.3" y1="654.3" x2="392.1" y2="654.3"/><line x1="369.3" y1="659.4" x2="392.1" y2="659.4"/><line x1="369.3" y1="664.4" x2="392.1" y2="664.4"/><line x1="369.3" y1="669.5" x2="392.1" y2="669.5"/><line x1="369.3" y1="674.5" x2="392.1" y2="674.5"/><line x1="365.9" y1="664.4" x2="365.9" y2="724.3"/><line x1="426.6" y1="664.4" x2="426.6" y2="724.3"/><line x1="423.3" y1="696.4" x2="400.5" y2="674.5"/><line x1="423.3" y1="695.2" x2="400.5" y2="673.4"/><line x1="423.3" y1="629.8" x2="423.3" y2="724.3"/><line x1="411.0" y1="711.6" x2="411.0" y2="655.0"/><line x1="381.5" y1="654.3" x2="381.5" y2="711.6"/><line x1="397.1" y1="657.7" x2="397.1" y2="696.5"/><line x1="395.4" y1="657.7" x2="395.4" y2="696.5"/><line x1="400.5" y1="654.3" x2="400.5" y2="699.8"/><line x1="392.1" y1="654.3" x2="392.1" y2="699.8"/><line x1="369.3" y1="629.8" x2="369.3" y2="724.3"/><polyline fill="none" points="325.4,724.3 332.2,724.3 332.2,731.0 325.4,731.0"/><polyline fill="none" points="279.0,723.5 285.8,723.5 285.8,731.9 279.0,731.9"/><line x1="283.3" y1="683.0" x2="281.6" y2="683.0"/><line x1="281.6" y1="723.5" x2="281.6" y2="683.0"/><line x1="283.3" y1="723.5" x2="283.3" y2="683.0"/><line x1="351.6" y1="628.2" x2="351.6" y2="624.8"/><line x1="334.7" y1="628.2" x2="334.7" y2="624.8"/><line x1="317.8" y1="650.9" x2="316.2" y2="650.9"/><line x1="317.8" y1="634.1" x2="316.2" y2="634.1"/><line x1="316.2" y1="634.1" x2="316.2" y2="630.7"/><line x1="317.8" y1="634.1" x2="317.8" y2="630.7"/><line x1="332.2" y1="629.8" x2="332.2" y2="630.7"/><line x1="317.8" y1="630.7" x2="332.2" y2="630.7"/><line x1="332.2" y1="624.8" x2="334.7" y2="624.8"/><line x1="332.2" y1="628.2" x2="334.7" y2="628.2"/><polyline fill="none" points="317.8,634.1 334.7,634.1 317.8,650.9"/><line x1="316.2" y1="662.7" x2="316.2" y2="650.9"/><line x1="317.8" y1="662.7" x2="317.8" y2="650.9"/><line x1="283.3" y1="666.1" x2="281.6" y2="666.1"/><line x1="283.3" y1="666.1" x2="283.3" y2="664.4"/><line x1="285.0" y1="662.7" x2="285.0" y2="630.7"/><line x1="281.6" y1="666.1" x2="281.6" y2="630.7"/><line x1="285.8" y1="630.7" x2="316.2" y2="630.7"/><line x1="285.8" y1="629.0" x2="325.4" y2="629.0"/><line x1="285.0" y1="662.7" x2="316.2" y2="662.7"/><polyline fill="none" points="283.3,666.1 300.1,666.1 283.3,683.0"/><line x1="283.3" y1="664.4" x2="365.9" y2="664.4"/><line x1="351.6" y1="628.2" x2="354.1" y2="628.2"/><line x1="351.6" y1="624.8" x2="364.2" y2="624.8"/><line x1="317.8" y1="662.7" x2="354.1" y2="662.7"/><line x1="269.6" y1="818.4" x2="262.7" y2="825.3"/><line x1="257.5" y1="824.8" x2="258.7" y2="823.6"/><polyline fill="none" points="249.2,806.2 250.0,807.0 250.9,806.2 250.0,805.3"/><polyline fill="none" points="237.9,794.8 238.7,795.7 239.5,794.8 238.7,794.0"/><line x1="249.2" y1="806.2" x2="238.7" y2="795.7"/><line x1="249.6" y1="805.7" x2="239.1" y2="795.2"/><line x1="250.0" y1="805.3" x2="239.5" y2="794.8"/><line x1="260.5" y1="817.5" x2="250.0" y2="807.0"/><line x1="260.9" y1="817.1" x2="250.5" y2="806.6"/><line x1="261.4" y1="816.7" x2="250.9" y2="806.2"/><line x1="268.4" y1="814.9" x2="264.0" y2="819.3"/><line x1="262.3" y1="817.6" x2="264.0" y2="819.3"/><line x1="257.5" y1="822.4" x2="262.3" y2="817.6"/><polyline fill="none" points="260.5,817.5 261.4,818.3 262.2,817.5 261.4,816.7"/><polyline fill="none" points="226.5,775.9 227.4,776.7 228.2,775.9 227.4,775.1"/><line x1="226.5" y1="775.9" x2="216.0" y2="765.4"/><line x1="227.4" y1="775.1" x2="216.9" y2="764.6"/><line x1="227.0" y1="775.5" x2="216.5" y2="765.0"/><polyline fill="none" points="215.2,764.6 216.0,765.4 216.9,764.6 216.0,763.7"/><polyline fill="none" points="203.9,753.2 204.7,754.1 205.5,753.2 204.7,752.4"/><line x1="215.2" y1="764.6" x2="204.7" y2="754.1"/><line x1="216.0" y1="763.7" x2="205.5" y2="753.2"/><line x1="215.6" y1="764.1" x2="205.1" y2="753.6"/><line x1="237.9" y1="794.8" x2="227.4" y2="784.3"/><line x1="238.7" y1="794.0" x2="228.2" y2="783.5"/><line x1="238.3" y1="794.4" x2="227.8" y2="783.9"/><line x1="193.4" y1="741.1" x2="182.9" y2="730.6"/><polyline fill="none" points="181.2,730.6 182.0,731.4 182.9,730.6 182.0,729.7"/><line x1="192.5" y1="741.9" x2="182.0" y2="731.4"/><line x1="193.0" y1="741.5" x2="182.5" y2="731.0"/><polyline fill="none" points="192.5,741.9 193.4,742.7 194.2,741.9 193.4,741.1"/><line x1="204.3" y1="752.8" x2="193.8" y2="742.3"/><line x1="204.7" y1="752.4" x2="194.2" y2="741.9"/><line x1="203.9" y1="753.2" x2="193.4" y2="742.7"/><polyline fill="none" points="179.1,717.5 183.3,717.5 183.3,722.6 179.1,722.6"/><line x1="182.3" y1="724.3" x2="180.7" y2="722.6"/><line x1="179.1" y1="721.0" x2="177.0" y2="718.9"/><line x1="176.2" y1="715.0" x2="167.4" y2="723.8"/><polyline fill="none" points="170.7,720.1 169.9,719.2 170.7,718.4 171.6,719.2"/><polyline fill="none" points="159.4,708.7 158.5,707.9 159.4,707.1 160.2,707.9"/><line x1="159.4" y1="708.7" x2="169.9" y2="719.2"/><line x1="159.8" y1="708.3" x2="170.3" y2="718.8"/><line x1="160.2" y1="707.9" x2="170.7" y2="718.4"/><line x1="177.0" y1="718.9" x2="172.2" y2="723.8"/><polyline fill="none" points="176.2,715.0 186.3,715.0 186.3,725.1"/><polyline fill="none" points="148.1,697.4 147.2,696.6 148.1,695.7 148.9,696.6"/><line x1="137.6" y1="685.2" x2="148.1" y2="695.7"/><line x1="126.2" y1="673.9" x2="136.7" y2="684.4"/><line x1="125.4" y1="674.7" x2="135.9" y2="685.2"/><line x1="125.8" y1="674.3" x2="136.3" y2="684.8"/><polyline fill="none" points="125.4,674.7 124.6,673.9 125.4,673.1 126.2,673.9"/><line x1="136.7" y1="686.1" x2="147.2" y2="696.6"/><line x1="137.1" y1="685.7" x2="147.6" y2="696.1"/><polyline fill="none" points="136.7,686.1 135.9,685.2 136.7,684.4 137.6,685.2"/><line x1="148.9" y1="696.6" x2="159.4" y2="707.1"/><line x1="148.5" y1="697.0" x2="159.0" y2="707.5"/><line x1="148.1" y1="697.4" x2="158.5" y2="707.9"/><line x1="177.5" y1="729.1" x2="172.2" y2="723.8"/><line x1="177.5" y1="733.9" x2="167.4" y2="723.8"/><line x1="182.3" y1="724.3" x2="177.5" y2="729.1"/><line x1="186.3" y1="725.1" x2="177.5" y2="733.9"/><line x1="267.2" y1="816.1" x2="185.1" y2="733.9"/><line x1="279.9" y1="826.4" x2="268.4" y2="814.9"/><line x1="279.9" y1="828.7" x2="269.6" y2="818.4"/><line x1="257.5" y1="822.4" x2="277.0" y2="842.0"/><line x1="262.7" y1="825.3" x2="277.7" y2="840.3"/><polyline fill="none" points="114.1,663.4 113.2,662.6 114.1,661.7 114.9,662.6"/><polyline fill="none" points="102.7,652.1 101.9,651.2 102.7,650.4 103.6,651.2"/><line x1="103.6" y1="651.2" x2="114.1" y2="661.7"/><line x1="102.7" y1="652.1" x2="113.2" y2="662.6"/><line x1="103.1" y1="651.7" x2="113.6" y2="662.2"/><line x1="90.4" y1="631.7" x2="83.6" y2="638.5"/><line x1="94.0" y1="632.9" x2="89.6" y2="637.3"/><line x1="91.3" y1="639.0" x2="89.6" y2="637.3"/><line x1="86.4" y1="643.8" x2="91.3" y2="639.0"/><polyline fill="none" points="91.4,640.7 90.6,639.9 91.4,639.1 92.2,639.9"/><line x1="84.1" y1="643.8" x2="85.3" y2="642.6"/><line x1="83.0" y1="621.8" x2="94.0" y2="632.9"/><line x1="81.0" y1="622.2" x2="90.4" y2="631.7"/><line x1="92.2" y1="639.9" x2="102.7" y2="650.4"/><line x1="91.4" y1="640.7" x2="101.9" y2="651.2"/><line x1="91.8" y1="640.3" x2="102.3" y2="650.8"/><line x1="83.6" y1="638.5" x2="68.6" y2="623.6"/><line x1="86.4" y1="643.8" x2="66.9" y2="624.3"/><line x1="92.8" y1="634.1" x2="175.0" y2="716.2"/><line x1="114.9" y1="662.6" x2="125.4" y2="673.1"/><line x1="114.1" y1="663.4" x2="124.6" y2="673.9"/><line x1="114.5" y1="663.0" x2="125.0" y2="673.5"/><line x1="257.5" y1="824.8" x2="84.1" y2="651.4"/><line x1="436.8" y1="662.7" x2="426.6" y2="662.7"/><line x1="438.5" y1="664.4" x2="426.6" y2="664.4"/><line x1="436.8" y1="628.2" x2="428.3" y2="662.7"/><line x1="460.4" y1="624.8" x2="428.3" y2="624.8"/><line x1="436.8" y1="628.2" x2="428.3" y2="628.2"/><line x1="428.9" y1="661.8" x2="436.8" y2="661.8"/><line x1="429.3" y1="660.1" x2="436.8" y2="660.1"/><line x1="429.7" y1="658.5" x2="436.8" y2="658.5"/><line x1="430.1" y1="656.8" x2="436.8" y2="656.8"/><line x1="430.5" y1="655.1" x2="436.8" y2="655.1"/><line x1="333.0" y1="834.3" x2="459.5" y2="834.3"/><line x1="403.9" y1="835.7" x2="437.6" y2="835.7"/><line x1="403.9" y1="836.1" x2="437.6" y2="836.1"/><line x1="403.9" y1="835.3" x2="437.6" y2="835.3"/><line x1="722.3" y1="588.5" x2="709.6" y2="588.5"/><line x1="724.0" y1="590.2" x2="711.3" y2="590.2"/><line x1="722.3" y1="570.0" x2="709.6" y2="570.0"/><line x1="709.6" y1="570.0" x2="722.3" y2="588.5"/><line x1="709.6" y1="588.5" x2="709.6" y2="570.0"/><line x1="723.9" y1="588.5" x2="723.9" y2="570.0"/><line x1="709.6" y1="623.1" x2="709.6" y2="588.5"/><line x1="711.3" y1="623.1" x2="711.3" y2="590.2"/><line x1="725.6" y1="566.6" x2="709.6" y2="566.6"/><line x1="713.0" y1="529.5" x2="713.0" y2="528.6"/><line x1="717.2" y1="529.5" x2="713.0" y2="529.5"/><line x1="720.6" y1="532.8" x2="709.6" y2="532.8"/><line x1="709.6" y1="532.8" x2="709.6" y2="528.6"/><line x1="709.6" y1="517.7" x2="709.6" y2="521.9"/><line x1="720.6" y1="517.7" x2="709.6" y2="517.7"/><line x1="713.0" y1="521.0" x2="713.0" y2="521.9"/><line x1="717.2" y1="521.0" x2="713.0" y2="521.0"/><polyline fill="none" points="715.5,521.9 709.6,521.9 709.6,528.6 715.5,528.6"/><line x1="720.6" y1="532.8" x2="720.6" y2="517.7"/><line x1="720.5" y1="529.1" x2="720.5" y2="520.6"/><line x1="715.6" y1="532.8" x2="715.6" y2="566.6"/><line x1="722.2" y1="532.4" x2="722.2" y2="566.2"/><line x1="723.1" y1="532.4" x2="723.1" y2="566.2"/><line x1="722.7" y1="532.4" x2="722.7" y2="566.2"/><line x1="709.6" y1="570.0" x2="709.6" y2="566.6"/><polyline fill="none" points="615.2,521.0 607.6,521.0 607.6,529.5 615.2,529.5"/><line x1="615.2" y1="523.6" x2="709.6" y2="523.6"/><line x1="709.6" y1="526.9" x2="615.2" y2="526.9"/><line x1="709.6" y1="528.6" x2="615.2" y2="528.6"/><line x1="615.2" y1="521.9" x2="709.6" y2="521.9"/><line x1="709.6" y1="480.5" x2="709.6" y2="483.9"/><line x1="722.3" y1="480.5" x2="709.6" y2="480.5"/><line x1="722.3" y1="462.0" x2="709.6" y2="462.0"/><line x1="724.0" y1="460.3" x2="711.3" y2="460.3"/><line x1="709.6" y1="480.5" x2="722.3" y2="462.0"/><line x1="709.6" y1="462.0" x2="709.6" y2="480.5"/><line x1="723.9" y1="462.0" x2="723.9" y2="480.5"/><line x1="725.6" y1="483.9" x2="709.6" y2="483.9"/><polyline fill="none" points="715.5,420.7 709.6,420.7 709.6,427.4 715.5,427.4"/><line x1="709.0" y1="404.4" x2="724.0" y2="419.3"/><line x1="698.6" y1="410.0" x2="703.0" y2="405.6"/><line x1="701.3" y1="403.9" x2="703.0" y2="405.6"/><line x1="702.1" y1="411.2" x2="709.0" y2="404.4"/><line x1="709.6" y1="421.1" x2="698.6" y2="410.0"/><line x1="711.6" y1="420.7" x2="702.1" y2="411.2"/><line x1="709.6" y1="427.4" x2="709.6" y2="462.0"/><line x1="711.3" y1="427.4" x2="711.3" y2="460.3"/><line x1="725.6" y1="418.6" x2="725.6" y2="483.9"/><line x1="724.0" y1="419.3" x2="724.0" y2="460.3"/><polyline fill="none" points="615.2,419.8 607.6,419.8 607.6,428.3 615.2,428.3"/><line x1="725.6" y1="588.5" x2="725.6" y2="462.0"/><line x1="715.6" y1="517.7" x2="715.6" y2="483.9"/><line x1="722.2" y1="517.3" x2="722.2" y2="483.5"/><line x1="723.1" y1="517.3" x2="723.1" y2="483.5"/><line x1="722.7" y1="517.3" x2="722.7" y2="483.5"/><line x1="523.6" y1="585.1" x2="523.6" y2="586.8"/><line x1="523.6" y1="585.1" x2="511.8" y2="585.1"/><line x1="523.6" y1="551.4" x2="511.8" y2="551.4"/><line x1="511.8" y1="585.1" x2="511.8" y2="551.4"/><line x1="510.1" y1="585.1" x2="510.1" y2="551.4"/><line x1="504.2" y1="620.6" x2="502.6" y2="620.6"/><line x1="502.6" y1="620.6" x2="502.6" y2="622.2"/><line x1="504.2" y1="620.6" x2="504.2" y2="622.2"/><line x1="506.8" y1="622.2" x2="504.2" y2="622.2"/><line x1="504.2" y1="593.6" x2="502.6" y2="593.6"/><line x1="504.2" y1="586.8" x2="504.2" y2="593.6"/><line x1="460.4" y1="622.2" x2="460.4" y2="623.1"/><line x1="467.1" y1="596.9" x2="444.4" y2="596.9"/><line x1="462.1" y1="588.5" x2="462.1" y2="595.3"/><line x1="462.1" y1="588.5" x2="463.8" y2="588.5"/><line x1="462.1" y1="595.3" x2="444.4" y2="595.3"/><line x1="444.4" y1="595.3" x2="444.4" y2="596.9"/><line x1="502.6" y1="622.2" x2="460.4" y2="622.2"/><line x1="506.8" y1="623.9" x2="467.1" y2="623.9"/><line x1="504.2" y1="519.3" x2="502.6" y2="519.3"/><line x1="504.2" y1="519.3" x2="504.2" y2="549.7"/><line x1="462.1" y1="546.3" x2="463.8" y2="546.3"/><line x1="465.4" y1="536.2" x2="465.4" y2="528.6"/><line x1="452.0" y1="539.6" x2="452.0" y2="537.9"/><line x1="462.1" y1="539.6" x2="452.0" y2="539.6"/><line x1="460.4" y1="537.9" x2="452.0" y2="537.9"/><line x1="462.1" y1="528.6" x2="462.1" y2="534.5"/><line x1="460.4" y1="528.6" x2="460.4" y2="537.9"/><line x1="462.1" y1="528.6" x2="462.1" y2="536.2"/><line x1="465.4" y1="536.2" x2="462.1" y2="536.2"/><line x1="455.3" y1="517.3" x2="455.3" y2="513.9"/><line x1="436.8" y1="539.6" x2="436.8" y2="537.9"/><line x1="435.1" y1="517.3" x2="435.1" y2="513.9"/><line x1="435.1" y1="513.9" x2="455.3" y2="513.9"/><line x1="435.1" y1="517.3" x2="455.3" y2="517.3"/><line x1="452.0" y1="537.9" x2="436.8" y2="537.9"/><line x1="436.8" y1="539.6" x2="452.0" y2="539.6"/><line x1="462.1" y1="539.6" x2="462.1" y2="546.3"/><line x1="463.8" y1="588.5" x2="463.8" y2="546.3"/><line x1="502.6" y1="593.6" x2="502.6" y2="519.3"/><line x1="504.2" y1="551.4" x2="504.2" y2="585.1"/><line x1="467.1" y1="596.9" x2="467.1" y2="528.6"/><line x1="522.0" y1="549.7" x2="504.2" y2="549.7"/><line x1="510.1" y1="551.4" x2="504.2" y2="551.4"/><polyline fill="none" points="504.2,620.0 517.1,620.0 504.2,607.1 517.1,594.2 504.2,594.2"/><line x1="523.6" y1="586.8" x2="504.2" y2="586.8"/><line x1="510.1" y1="585.1" x2="504.2" y2="585.1"/><line x1="523.6" y1="499.1" x2="511.8" y2="499.1"/><line x1="523.6" y1="465.4" x2="511.8" y2="465.4"/><line x1="523.6" y1="463.7" x2="523.6" y2="465.4"/><line x1="510.1" y1="465.4" x2="510.1" y2="499.1"/><line x1="511.8" y1="465.4" x2="511.8" y2="499.1"/><line x1="504.2" y1="505.9" x2="502.6" y2="505.9"/><line x1="504.2" y1="505.9" x2="504.2" y2="500.8"/><line x1="504.2" y1="499.1" x2="504.2" y2="465.4"/><line x1="435.1" y1="510.5" x2="455.3" y2="510.5"/><line x1="463.8" y1="473.0" x2="452.8" y2="473.0"/><line x1="463.8" y1="469.6" x2="463.8" y2="465.1"/><line x1="456.2" y1="467.2" x2="456.2" y2="469.6"/><path fill="none" d="M 632.8 216.9 A 237.5 237.5 0 0 0 632.8 216.8"/><line x1="467.1" y1="458.6" x2="463.8" y2="458.6"/><line x1="463.8" y1="461.6" x2="463.8" y2="458.6"/><path fill="none" d="M 629.5 217.2 A 234.1 234.1 0 0 0 629.5 217.0"/><line x1="463.8" y1="469.6" x2="456.2" y2="469.6"/><line x1="452.8" y1="464.6" x2="452.8" y2="473.0"/><line x1="437.6" y1="467.9" x2="437.6" y2="473.0"/><line x1="435.1" y1="479.6" x2="455.3" y2="479.6"/><line x1="452.8" y1="472.1" x2="437.6" y2="472.1"/><line x1="452.8" y1="473.0" x2="437.6" y2="473.0"/><line x1="435.1" y1="510.5" x2="455.3" y2="479.6"/><line x1="435.1" y1="479.6" x2="455.3" y2="510.5"/><line x1="435.1" y1="510.5" x2="435.1" y2="479.6"/><line x1="455.3" y1="510.5" x2="455.3" y2="479.6"/><line x1="504.2" y1="456.9" x2="502.6" y2="456.9"/><line x1="504.2" y1="429.9" x2="504.2" y2="428.3"/><line x1="502.6" y1="429.9" x2="502.6" y2="428.3"/><line x1="504.2" y1="429.9" x2="502.6" y2="429.9"/><line x1="506.8" y1="428.3" x2="504.2" y2="428.3"/><line x1="460.4" y1="420.7" x2="460.4" y2="419.8"/><line x1="453.6" y1="428.3" x2="453.6" y2="426.6"/><line x1="453.6" y1="426.6" x2="460.4" y2="426.6"/><polyline fill="none" points="460.4,420.7 467.1,420.7 467.1,427.4 460.4,427.4"/><line x1="440.1" y1="428.3" x2="440.1" y2="426.6"/><line x1="440.1" y1="426.6" x2="438.5" y2="426.6"/><polyline fill="none" points="440.1,426.6 440.1,413.1 453.6,426.6"/><line x1="502.6" y1="428.3" x2="453.6" y2="428.3"/><line x1="506.8" y1="421.5" x2="467.1" y2="421.5"/><line x1="506.8" y1="426.6" x2="467.1" y2="426.6"/><line x1="506.8" y1="419.8" x2="460.4" y2="419.8"/><line x1="502.6" y1="505.9" x2="502.6" y2="456.9"/><line x1="504.2" y1="463.7" x2="504.2" y2="456.9"/><polyline fill="none" points="504.2,456.3 517.1,456.3 504.2,443.4 517.1,430.5 504.2,430.5"/><line x1="523.6" y1="463.7" x2="504.2" y2="463.7"/><line x1="510.1" y1="465.4" x2="504.2" y2="465.4"/><polyline fill="none" points="506.8,419.8 513.5,419.8 513.5,428.3 506.8,428.3"/><line x1="522.0" y1="500.8" x2="504.2" y2="500.8"/><line x1="510.1" y1="499.1" x2="504.2" y2="499.1"/><line x1="467.1" y1="521.9" x2="467.1" y2="458.6"/><line x1="463.8" y1="521.9" x2="463.8" y2="473.0"/><line x1="523.6" y1="499.1" x2="523.6" y2="551.4"/><line x1="522.0" y1="500.8" x2="522.0" y2="549.7"/><polyline fill="none" points="502.6,505.9 489.1,505.9 502.6,519.3"/><line x1="708.5" y1="399.1" x2="707.3" y2="400.3"/><line x1="701.2" y1="402.1" x2="690.7" y2="391.7"/><polyline fill="none" points="689.8,390.8 690.7,391.7 689.8,392.5 689.0,391.7"/><polyline fill="none" points="678.5,379.5 679.3,380.3 678.5,381.2 677.7,380.3"/><line x1="689.0" y1="391.7" x2="678.5" y2="381.2"/><line x1="689.8" y1="390.8" x2="679.3" y2="380.3"/><line x1="689.4" y1="391.2" x2="678.9" y2="380.7"/><polyline fill="none" points="667.2,368.2 668.0,369.0 667.2,369.8 666.3,369.0"/><line x1="677.7" y1="380.3" x2="667.2" y2="369.8"/><line x1="678.5" y1="379.5" x2="668.0" y2="369.0"/><line x1="678.1" y1="379.9" x2="667.6" y2="369.4"/><polyline fill="none" points="655.9,356.8 656.7,357.7 655.9,358.5 655.0,357.7"/><line x1="666.3" y1="369.0" x2="655.9" y2="358.5"/><line x1="667.2" y1="368.2" x2="656.7" y2="357.7"/><line x1="666.8" y1="368.6" x2="656.3" y2="358.1"/><line x1="509.3" y1="382.7" x2="511.0" y2="382.7"/><line x1="509.3" y1="382.7" x2="509.3" y2="384.4"/><line x1="509.3" y1="365.8" x2="511.0" y2="365.8"/><line x1="507.6" y1="386.1" x2="438.5" y2="386.1"/><polyline fill="none" points="509.3,382.7 492.4,382.7 509.3,365.8"/><line x1="438.5" y1="426.6" x2="438.5" y2="386.1"/><line x1="436.8" y1="426.6" x2="436.8" y2="386.1"/><line x1="507.6" y1="386.1" x2="507.6" y2="419.8"/><line x1="511.0" y1="382.7" x2="511.0" y2="419.8"/><line x1="706.1" y1="399.1" x2="725.6" y2="418.6"/><line x1="706.1" y1="399.1" x2="701.3" y2="403.9"/><polyline fill="none" points="701.2,402.1 702.0,403.0 701.2,403.8 700.3,403.0"/><line x1="700.3" y1="403.0" x2="689.8" y2="392.5"/><line x1="700.8" y1="402.6" x2="690.3" y2="392.1"/><line x1="428.3" y1="619.7" x2="425.0" y2="619.7"/><line x1="425.0" y1="619.7" x2="425.0" y2="623.1"/><line x1="428.3" y1="619.7" x2="428.3" y2="623.1"/><line x1="428.3" y1="602.8" x2="425.0" y2="602.8"/><line x1="425.0" y1="598.6" x2="425.0" y2="602.8"/><line x1="430.9" y1="596.9" x2="428.3" y2="596.9"/><line x1="428.3" y1="596.9" x2="428.3" y2="602.8"/><line x1="403.9" y1="596.9" x2="403.9" y2="598.6"/><line x1="425.0" y1="598.6" x2="403.9" y2="598.6"/><line x1="425.0" y1="596.9" x2="403.9" y2="596.9"/><line x1="430.9" y1="595.3" x2="426.6" y2="595.3"/><line x1="412.2" y1="589.0" x2="412.2" y2="586.8"/><line x1="413.9" y1="588.6" x2="413.9" y2="586.8"/><line x1="415.6" y1="588.3" x2="415.6" y2="586.8"/><line x1="417.3" y1="588.0" x2="417.3" y2="586.8"/><line x1="419.0" y1="587.7" x2="419.0" y2="586.8"/><line x1="420.6" y1="587.3" x2="420.6" y2="586.8"/><line x1="422.3" y1="587.0" x2="422.3" y2="586.8"/><line x1="426.6" y1="581.8" x2="425.0" y2="581.8"/><line x1="425.0" y1="585.1" x2="425.0" y2="581.8"/><line x1="426.6" y1="595.3" x2="426.6" y2="581.8"/><line x1="394.6" y1="585.1" x2="398.0" y2="585.1"/><line x1="397.0" y1="591.9" x2="397.0" y2="586.8"/><line x1="398.7" y1="591.6" x2="398.7" y2="586.8"/><line x1="400.4" y1="591.2" x2="400.4" y2="586.8"/><line x1="402.1" y1="590.9" x2="402.1" y2="586.8"/><line x1="403.8" y1="590.6" x2="403.8" y2="586.8"/><line x1="405.5" y1="590.3" x2="405.5" y2="586.8"/><line x1="407.2" y1="589.9" x2="407.2" y2="586.8"/><line x1="408.8" y1="589.6" x2="408.8" y2="586.8"/><line x1="410.5" y1="589.3" x2="410.5" y2="586.8"/><line x1="395.3" y1="592.2" x2="395.3" y2="586.8"/><line x1="393.7" y1="592.6" x2="393.7" y2="586.8"/><line x1="392.0" y1="592.9" x2="392.0" y2="586.8"/><line x1="425.0" y1="585.1" x2="399.7" y2="585.1"/><line x1="425.0" y1="586.8" x2="425.0" y2="596.9"/><line x1="423.3" y1="596.9" x2="423.3" y2="586.8"/><line x1="430.9" y1="595.3" x2="430.9" y2="596.9"/><line x1="388.7" y1="596.9" x2="388.7" y2="598.6"/><line x1="364.2" y1="619.7" x2="367.6" y2="619.7"/><line x1="364.2" y1="619.7" x2="364.2" y2="623.1"/><line x1="367.6" y1="619.7" x2="367.6" y2="623.1"/><line x1="367.6" y1="598.6" x2="367.6" y2="602.8"/><line x1="361.7" y1="596.9" x2="364.2" y2="596.9"/><line x1="364.2" y1="596.9" x2="364.2" y2="602.8"/><line x1="364.2" y1="602.8" x2="367.6" y2="602.8"/><line x1="367.6" y1="596.9" x2="388.7" y2="596.9"/><line x1="367.6" y1="598.6" x2="388.7" y2="598.6"/><line x1="390.3" y1="593.2" x2="390.3" y2="586.8"/><line x1="388.6" y1="593.5" x2="388.6" y2="586.8"/><line x1="386.9" y1="593.9" x2="386.9" y2="586.8"/><line x1="385.2" y1="594.2" x2="385.2" y2="586.8"/><line x1="383.5" y1="594.5" x2="383.5" y2="586.8"/><line x1="381.8" y1="594.8" x2="381.8" y2="586.8"/><line x1="380.2" y1="595.2" x2="380.2" y2="586.8"/><line x1="378.5" y1="595.5" x2="378.5" y2="586.8"/><line x1="376.8" y1="595.8" x2="376.8" y2="586.8"/><line x1="375.1" y1="596.1" x2="375.1" y2="586.8"/><line x1="361.7" y1="595.3" x2="365.9" y2="595.3"/><line x1="365.9" y1="581.8" x2="367.6" y2="581.8"/><line x1="367.6" y1="585.1" x2="367.6" y2="581.8"/><line x1="365.9" y1="595.3" x2="365.9" y2="581.8"/><line x1="361.7" y1="595.3" x2="361.7" y2="596.9"/><line x1="367.6" y1="586.8" x2="367.6" y2="596.9"/><line x1="369.3" y1="596.9" x2="369.3" y2="586.8"/><line x1="370.0" y1="596.9" x2="370.0" y2="586.8"/><line x1="373.4" y1="596.5" x2="373.4" y2="586.8"/><line x1="371.7" y1="596.8" x2="371.7" y2="586.8"/><line x1="367.6" y1="586.8" x2="425.0" y2="586.8"/><line x1="367.6" y1="585.1" x2="392.9" y2="585.1"/><polyline fill="none" points="403.9,598.6 403.9,613.8 388.7,598.6"/><line x1="423.3" y1="586.8" x2="371.0" y2="596.9"/><line x1="426.6" y1="566.6" x2="425.0" y2="566.6"/><line x1="426.6" y1="558.1" x2="425.0" y2="558.1"/><line x1="425.0" y1="561.5" x2="425.0" y2="558.1"/><line x1="425.0" y1="566.6" x2="425.0" y2="563.2"/><line x1="426.6" y1="566.6" x2="426.6" y2="558.1"/><line x1="426.6" y1="543.0" x2="425.0" y2="543.0"/><line x1="425.0" y1="563.2" x2="399.7" y2="563.2"/><line x1="425.0" y1="561.5" x2="399.7" y2="561.5"/><polyline fill="none" points="425.0,543.0 409.8,543.0 425.0,558.1"/><line x1="423.3" y1="537.9" x2="423.3" y2="528.6"/><line x1="425.0" y1="528.6" x2="425.0" y2="537.9"/><line x1="422.2" y1="537.7" x2="422.2" y2="537.9"/><line x1="420.5" y1="537.4" x2="420.5" y2="537.9"/><line x1="418.9" y1="537.0" x2="418.9" y2="537.9"/><line x1="417.2" y1="536.7" x2="417.2" y2="537.9"/><line x1="415.5" y1="536.4" x2="415.5" y2="537.9"/><line x1="413.8" y1="536.1" x2="413.8" y2="537.9"/><line x1="412.1" y1="535.7" x2="412.1" y2="537.9"/><line x1="428.3" y1="528.6" x2="428.3" y2="537.9"/><line x1="419.1" y1="517.7" x2="419.1" y2="514.3"/><polyline fill="none" points="421.6,521.9 428.3,521.9 428.3,528.6 421.6,528.6"/><line x1="394.6" y1="539.6" x2="398.0" y2="539.6"/><line x1="391.9" y1="531.8" x2="391.9" y2="537.9"/><line x1="393.6" y1="532.2" x2="393.6" y2="537.9"/><line x1="395.2" y1="532.5" x2="395.2" y2="537.9"/><line x1="410.4" y1="535.4" x2="410.4" y2="537.9"/><line x1="408.7" y1="535.1" x2="408.7" y2="537.9"/><line x1="407.0" y1="534.8" x2="407.0" y2="537.9"/><line x1="405.4" y1="534.4" x2="405.4" y2="537.9"/><line x1="403.7" y1="534.1" x2="403.7" y2="537.9"/><line x1="402.0" y1="533.8" x2="402.0" y2="537.9"/><line x1="400.3" y1="533.5" x2="400.3" y2="537.9"/><line x1="398.6" y1="533.1" x2="398.6" y2="537.9"/><line x1="396.9" y1="532.8" x2="396.9" y2="537.9"/><line x1="398.8" y1="517.7" x2="398.8" y2="514.3"/><line x1="393.8" y1="517.7" x2="393.8" y2="514.3"/><line x1="419.1" y1="514.3" x2="398.8" y2="514.3"/><line x1="419.1" y1="517.7" x2="398.8" y2="517.7"/><line x1="425.0" y1="539.6" x2="399.7" y2="539.6"/><line x1="425.0" y1="543.0" x2="425.0" y2="539.6"/><line x1="426.6" y1="543.0" x2="426.6" y2="539.6"/><line x1="392.9" y1="561.5" x2="392.9" y2="539.6"/><line x1="399.7" y1="561.5" x2="399.7" y2="539.6"/><line x1="365.9" y1="566.6" x2="367.6" y2="566.6"/><line x1="367.6" y1="561.5" x2="367.6" y2="558.1"/><line x1="365.9" y1="558.1" x2="367.6" y2="558.1"/><line x1="365.9" y1="566.6" x2="365.9" y2="558.1"/><line x1="367.6" y1="566.6" x2="367.6" y2="563.2"/><line x1="365.9" y1="543.0" x2="367.6" y2="543.0"/><line x1="373.3" y1="528.2" x2="373.3" y2="537.9"/><line x1="375.0" y1="528.6" x2="375.0" y2="537.9"/><line x1="376.7" y1="528.9" x2="376.7" y2="537.9"/><line x1="378.4" y1="529.2" x2="378.4" y2="537.9"/><line x1="380.1" y1="529.5" x2="380.1" y2="537.9"/><line x1="381.7" y1="529.9" x2="381.7" y2="537.9"/><line x1="383.4" y1="530.2" x2="383.4" y2="537.9"/><line x1="385.1" y1="530.5" x2="385.1" y2="537.9"/><line x1="386.8" y1="530.8" x2="386.8" y2="537.9"/><line x1="388.5" y1="531.2" x2="388.5" y2="537.9"/><line x1="390.2" y1="531.5" x2="390.2" y2="537.9"/><line x1="373.5" y1="517.7" x2="373.5" y2="514.3"/><line x1="367.6" y1="528.6" x2="367.6" y2="537.9"/><line x1="364.2" y1="528.6" x2="364.2" y2="537.9"/><line x1="355.8" y1="539.6" x2="355.8" y2="537.9"/><line x1="355.8" y1="539.6" x2="365.9" y2="539.6"/><line x1="355.8" y1="537.9" x2="364.2" y2="537.9"/><line x1="369.3" y1="537.9" x2="369.3" y2="528.6"/><line x1="369.9" y1="528.6" x2="369.9" y2="537.9"/><line x1="371.6" y1="527.9" x2="371.6" y2="537.9"/><line x1="357.5" y1="517.3" x2="357.5" y2="513.9"/><polyline fill="none" points="364.2,521.9 371.0,521.9 371.0,528.6 364.2,528.6"/><polyline fill="none" points="367.6,558.1 382.8,558.1 367.6,543.0"/><line x1="365.9" y1="543.0" x2="365.9" y2="539.6"/><line x1="367.6" y1="543.0" x2="367.6" y2="539.6"/><line x1="367.6" y1="561.5" x2="392.9" y2="561.5"/><line x1="367.6" y1="563.2" x2="392.9" y2="563.2"/><line x1="367.6" y1="539.6" x2="392.9" y2="539.6"/><line x1="367.6" y1="537.9" x2="425.0" y2="537.9"/><line x1="371.0" y1="523.6" x2="421.6" y2="523.6"/><line x1="373.5" y1="517.7" x2="393.8" y2="517.7"/><line x1="373.5" y1="514.3" x2="393.8" y2="514.3"/><line x1="371.0" y1="526.1" x2="421.6" y2="526.1"/><line x1="371.0" y1="527.8" x2="421.6" y2="527.8"/><line x1="423.3" y1="537.9" x2="371.0" y2="527.8"/><polyline fill="none" points="367.6,581.8 382.8,581.8 367.6,566.6"/><line x1="392.9" y1="585.1" x2="392.9" y2="563.2"/><line x1="399.7" y1="585.1" x2="399.7" y2="563.2"/><line x1="398.0" y1="539.6" x2="398.0" y2="585.1"/><line x1="394.6" y1="539.6" x2="394.6" y2="585.1"/><polyline fill="none" points="425.0,566.6 409.8,566.6 425.0,581.8"/><line x1="332.2" y1="623.1" x2="332.2" y2="622.2"/><line x1="325.4" y1="596.9" x2="348.2" y2="596.9"/><line x1="330.5" y1="588.5" x2="330.5" y2="595.3"/><line x1="330.5" y1="588.5" x2="328.8" y2="588.5"/><line x1="330.5" y1="595.3" x2="348.2" y2="595.3"/><line x1="348.2" y1="595.3" x2="348.2" y2="596.9"/><line x1="285.8" y1="622.2" x2="288.3" y2="622.2"/><line x1="288.3" y1="620.6" x2="288.3" y2="622.2"/><line x1="290.0" y1="620.6" x2="290.0" y2="622.2"/><line x1="288.3" y1="620.6" x2="290.0" y2="620.6"/><line x1="282.4" y1="585.1" x2="288.3" y2="585.1"/><line x1="288.3" y1="586.8" x2="288.3" y2="593.6"/><line x1="288.3" y1="593.6" x2="290.0" y2="593.6"/><line x1="290.0" y1="622.2" x2="332.2" y2="622.2"/><line x1="285.8" y1="623.9" x2="325.4" y2="623.9"/><line x1="330.5" y1="546.3" x2="328.8" y2="546.3"/><line x1="340.6" y1="539.6" x2="340.6" y2="537.9"/><line x1="337.2" y1="517.3" x2="337.2" y2="513.9"/><line x1="330.5" y1="528.6" x2="330.5" y2="536.2"/><line x1="332.2" y1="528.6" x2="332.2" y2="537.9"/><line x1="327.1" y1="536.2" x2="327.1" y2="528.6"/><line x1="327.1" y1="536.2" x2="330.5" y2="536.2"/><polyline fill="none" points="325.4,521.9 332.2,521.9 332.2,528.6 325.4,528.6"/><line x1="332.2" y1="537.9" x2="340.6" y2="537.9"/><line x1="330.5" y1="539.6" x2="340.6" y2="539.6"/><line x1="330.5" y1="539.6" x2="330.5" y2="546.3"/><line x1="282.4" y1="551.4" x2="288.3" y2="551.4"/><line x1="288.3" y1="519.3" x2="290.0" y2="519.3"/><line x1="288.3" y1="519.3" x2="288.3" y2="549.7"/><line x1="328.8" y1="588.5" x2="328.8" y2="546.3"/><line x1="282.4" y1="585.1" x2="282.4" y2="551.4"/><line x1="280.7" y1="585.1" x2="280.7" y2="551.4"/><line x1="290.0" y1="593.6" x2="290.0" y2="519.3"/><line x1="288.3" y1="551.4" x2="288.3" y2="585.1"/><line x1="325.4" y1="596.9" x2="325.4" y2="528.6"/><polyline fill="none" points="361.7,595.3 361.7,581.8 348.2,595.3"/><line x1="332.2" y1="523.6" x2="364.2" y2="523.6"/><line x1="357.5" y1="517.3" x2="337.2" y2="517.3"/><line x1="357.5" y1="513.9" x2="337.2" y2="513.9"/><line x1="332.2" y1="526.1" x2="364.2" y2="526.1"/><line x1="332.2" y1="524.4" x2="364.2" y2="524.4"/><line x1="355.8" y1="537.9" x2="340.6" y2="537.9"/><line x1="340.6" y1="539.6" x2="355.8" y2="539.6"/><line x1="419.1" y1="510.9" x2="419.1" y2="485.6"/><line x1="398.8" y1="510.9" x2="398.8" y2="485.6"/><line x1="393.8" y1="510.9" x2="393.8" y2="485.6"/><line x1="419.1" y1="485.6" x2="398.8" y2="510.9"/><line x1="419.1" y1="510.9" x2="398.8" y2="485.6"/><line x1="419.1" y1="485.6" x2="398.8" y2="485.6"/><line x1="419.1" y1="510.9" x2="398.8" y2="510.9"/><line x1="416.5" y1="476.3" x2="423.3" y2="476.3"/><line x1="416.5" y1="476.3" x2="415.7" y2="476.3"/><line x1="416.5" y1="476.3" x2="416.5" y2="470.7"/><line x1="401.3" y1="476.3" x2="402.2" y2="476.3"/><line x1="401.3" y1="476.3" x2="401.3" y2="471.5"/><line x1="416.5" y1="476.3" x2="401.3" y2="476.3"/><line x1="416.5" y1="475.5" x2="401.3" y2="475.5"/><line x1="373.5" y1="510.9" x2="373.5" y2="485.6"/><line x1="391.2" y1="476.3" x2="390.4" y2="476.3"/><line x1="376.0" y1="475.5" x2="391.2" y2="475.5"/><line x1="376.0" y1="476.3" x2="391.2" y2="476.3"/><line x1="376.0" y1="476.3" x2="376.9" y2="476.3"/><line x1="391.2" y1="476.3" x2="391.2" y2="471.5"/><line x1="376.0" y1="476.3" x2="376.0" y2="470.7"/><line x1="355.0" y1="473.0" x2="365.9" y2="473.0"/><line x1="355.0" y1="467.9" x2="355.0" y2="473.0"/><path fill="none" d="M 629.6 218.9 A 234.1 234.1 0 0 0 629.6 218.6"/><line x1="376.0" y1="476.3" x2="369.3" y2="476.3"/><line x1="357.5" y1="510.5" x2="357.5" y2="479.6"/><path fill="none" d="M 629.6 218.3 A 234.1 234.1 0 0 0 629.6 218.1"/><line x1="401.3" y1="476.3" x2="391.2" y2="476.3"/><line x1="373.5" y1="510.9" x2="393.8" y2="510.9"/><line x1="373.5" y1="485.6" x2="393.8" y2="485.6"/><line x1="373.5" y1="510.9" x2="393.8" y2="485.6"/><line x1="373.5" y1="485.6" x2="393.8" y2="510.9"/><polyline fill="none" points="421.6,420.7 428.3,420.7 428.3,427.4 421.6,427.4"/><line x1="421.6" y1="427.4" x2="421.6" y2="428.3"/><polyline fill="none" points="364.2,420.7 371.0,420.7 371.0,427.4 364.2,427.4"/><line x1="371.0" y1="428.3" x2="354.1" y2="428.3"/><line x1="364.2" y1="426.6" x2="355.8" y2="426.6"/><line x1="355.8" y1="425.8" x2="364.1" y2="425.8"/><line x1="355.8" y1="424.1" x2="363.7" y2="424.1"/><line x1="355.8" y1="422.4" x2="363.4" y2="422.4"/><line x1="355.8" y1="420.7" x2="363.0" y2="420.7"/><line x1="355.8" y1="419.0" x2="362.7" y2="419.0"/><line x1="355.8" y1="417.3" x2="362.3" y2="417.3"/><line x1="371.0" y1="427.4" x2="371.0" y2="428.3"/><line x1="355.8" y1="412.3" x2="361.3" y2="412.3"/><line x1="355.8" y1="410.6" x2="360.9" y2="410.6"/><line x1="355.8" y1="408.9" x2="360.6" y2="408.9"/><line x1="355.8" y1="407.2" x2="360.2" y2="407.2"/><line x1="355.8" y1="403.8" x2="359.5" y2="403.8"/><line x1="355.8" y1="405.5" x2="359.8" y2="405.5"/><line x1="355.8" y1="415.6" x2="362.0" y2="415.6"/><line x1="355.8" y1="413.9" x2="361.6" y2="413.9"/><line x1="336.4" y1="467.2" x2="336.4" y2="469.6"/><line x1="339.8" y1="464.6" x2="339.8" y2="473.0"/><line x1="328.8" y1="469.6" x2="328.8" y2="465.1"/><line x1="328.8" y1="461.6" x2="328.8" y2="458.6"/><line x1="325.4" y1="458.6" x2="328.8" y2="458.6"/><path fill="none" d="M 633.0 219.1 A 237.5 237.5 0 0 0 633.0 219.0"/><path fill="none" d="M 629.7 219.4 A 234.1 234.1 0 0 0 629.7 219.2"/><line x1="328.8" y1="473.0" x2="339.8" y2="473.0"/><line x1="328.8" y1="469.6" x2="336.4" y2="469.6"/><line x1="337.2" y1="510.5" x2="337.2" y2="479.6"/><line x1="288.3" y1="505.9" x2="288.3" y2="500.8"/><line x1="288.3" y1="505.9" x2="290.0" y2="505.9"/><line x1="282.4" y1="499.1" x2="288.3" y2="499.1"/><line x1="282.4" y1="465.4" x2="288.3" y2="465.4"/><line x1="288.3" y1="499.1" x2="288.3" y2="465.4"/><line x1="280.7" y1="465.4" x2="280.7" y2="499.1"/><line x1="282.4" y1="465.4" x2="282.4" y2="499.1"/><polyline fill="none" points="325.4,420.7 332.2,420.7 332.2,427.4 325.4,427.4"/><line x1="332.2" y1="420.7" x2="332.2" y2="417.3"/><line x1="330.5" y1="419.8" x2="330.5" y2="417.3"/><line x1="330.5" y1="417.3" x2="332.2" y2="417.3"/><line x1="332.2" y1="427.4" x2="332.2" y2="428.3"/><line x1="330.5" y1="403.8" x2="332.2" y2="403.8"/><line x1="288.3" y1="456.9" x2="290.0" y2="456.9"/><line x1="285.8" y1="428.3" x2="288.3" y2="428.3"/><line x1="288.3" y1="429.9" x2="290.0" y2="429.9"/><line x1="290.0" y1="429.9" x2="290.0" y2="428.3"/><line x1="288.3" y1="429.9" x2="288.3" y2="428.3"/><polyline fill="none" points="279.0,419.8 285.8,419.8 285.8,428.3 279.0,428.3"/><line x1="290.0" y1="428.3" x2="332.2" y2="428.3"/><line x1="285.8" y1="419.8" x2="330.5" y2="419.8"/><line x1="285.8" y1="426.6" x2="325.4" y2="426.6"/><line x1="285.8" y1="421.5" x2="325.4" y2="421.5"/><line x1="290.0" y1="505.9" x2="290.0" y2="456.9"/><line x1="288.3" y1="463.7" x2="288.3" y2="456.9"/><line x1="339.8" y1="473.0" x2="355.0" y2="473.0"/><line x1="339.8" y1="472.1" x2="355.0" y2="472.1"/><line x1="357.5" y1="479.6" x2="337.2" y2="510.5"/><line x1="357.5" y1="510.5" x2="337.2" y2="479.6"/><line x1="357.5" y1="479.6" x2="337.2" y2="479.6"/><line x1="357.5" y1="510.5" x2="337.2" y2="510.5"/><line x1="325.4" y1="521.9" x2="325.4" y2="458.6"/><polyline fill="none" points="290.0,505.9 303.5,505.9 290.0,519.3"/><line x1="328.8" y1="521.9" x2="328.8" y2="473.0"/><line x1="365.9" y1="473.0" x2="365.9" y2="521.9"/><line x1="423.3" y1="476.3" x2="423.3" y2="521.9"/><line x1="426.6" y1="473.0" x2="426.6" y2="521.9"/><line x1="369.3" y1="476.3" x2="369.3" y2="521.9"/><line x1="268.9" y1="585.1" x2="268.9" y2="586.8"/><polyline fill="none" points="177.4,513.4 185.0,513.4 185.0,521.9 177.4,521.9"/><line x1="268.9" y1="463.7" x2="268.9" y2="465.4"/><polyline fill="none" points="177.4,412.2 185.0,412.2 185.0,420.6 177.4,420.6"/><line x1="268.9" y1="499.1" x2="268.9" y2="551.4"/><line x1="270.6" y1="500.8" x2="270.6" y2="549.7"/><polyline fill="none" points="288.3,430.5 275.4,430.5 288.3,443.4 275.4,456.3 288.3,456.3"/><line x1="268.9" y1="463.7" x2="288.3" y2="463.7"/><line x1="268.9" y1="465.4" x2="280.7" y2="465.4"/><line x1="270.6" y1="500.8" x2="288.3" y2="500.8"/><line x1="268.9" y1="499.1" x2="280.7" y2="499.1"/><line x1="268.9" y1="551.4" x2="280.7" y2="551.4"/><line x1="270.6" y1="549.7" x2="288.3" y2="549.7"/><polyline fill="none" points="288.3,594.2 275.4,594.2 288.3,607.1 275.4,620.0 288.3,620.0"/><line x1="268.9" y1="585.1" x2="280.7" y2="585.1"/><line x1="268.9" y1="586.8" x2="288.3" y2="586.8"/><line x1="426.6" y1="395.4" x2="430.3" y2="395.4"/><line x1="426.6" y1="393.7" x2="429.9" y2="393.7"/><line x1="426.6" y1="392.0" x2="429.6" y2="392.0"/><line x1="426.6" y1="390.3" x2="429.2" y2="390.3"/><line x1="426.6" y1="388.6" x2="428.9" y2="388.6"/><line x1="426.6" y1="397.1" x2="430.6" y2="397.1"/><line x1="428.3" y1="387.0" x2="428.5" y2="387.0"/><line x1="395.4" y1="392.8" x2="397.1" y2="392.8"/><line x1="392.1" y1="396.2" x2="400.5" y2="396.2"/><circle fill="none" cx="411.0" cy="396.2" r="1.2"/><line x1="423.3" y1="396.2" x2="400.5" y2="396.2"/><line x1="423.3" y1="376.0" x2="400.5" y2="376.0"/><line x1="423.3" y1="381.0" x2="400.5" y2="381.0"/><line x1="423.3" y1="386.1" x2="400.5" y2="386.1"/><line x1="423.3" y1="391.1" x2="400.5" y2="391.1"/><line x1="397.1" y1="354.0" x2="395.4" y2="354.0"/><line x1="400.5" y1="350.7" x2="392.1" y2="350.7"/><line x1="423.3" y1="355.7" x2="400.5" y2="355.7"/><line x1="423.3" y1="360.8" x2="400.5" y2="360.8"/><line x1="423.3" y1="365.8" x2="400.5" y2="365.8"/><line x1="423.3" y1="370.9" x2="400.5" y2="370.9"/><line x1="395.4" y1="354.0" x2="395.4" y2="392.8"/><line x1="397.1" y1="354.0" x2="397.1" y2="392.8"/><line x1="400.5" y1="396.2" x2="400.5" y2="350.7"/><line x1="392.1" y1="396.2" x2="392.1" y2="350.7"/><line x1="384.9" y1="392.2" x2="381.5" y2="395.5"/><line x1="378.2" y1="392.2" x2="384.9" y2="392.2"/><line x1="381.5" y1="395.5" x2="378.2" y2="392.2"/><line x1="355.8" y1="388.6" x2="356.3" y2="388.6"/><line x1="355.8" y1="390.3" x2="356.7" y2="390.3"/><line x1="355.8" y1="392.0" x2="357.0" y2="392.0"/><line x1="355.8" y1="393.7" x2="357.4" y2="393.7"/><line x1="355.8" y1="395.4" x2="357.7" y2="395.4"/><line x1="355.8" y1="397.1" x2="358.1" y2="397.1"/><line x1="355.8" y1="398.8" x2="358.4" y2="398.8"/><line x1="355.8" y1="400.4" x2="358.8" y2="400.4"/><line x1="355.8" y1="402.1" x2="359.1" y2="402.1"/><line x1="355.8" y1="386.1" x2="365.9" y2="386.1"/><line x1="355.8" y1="387.0" x2="356.0" y2="387.0"/><line x1="384.9" y1="361.8" x2="381.5" y2="365.2"/><line x1="378.2" y1="361.8" x2="384.9" y2="361.8"/><line x1="381.5" y1="365.2" x2="378.2" y2="361.8"/><line x1="369.3" y1="355.3" x2="392.1" y2="377.1"/><line x1="369.3" y1="354.1" x2="392.1" y2="376.0"/><line x1="369.3" y1="355.7" x2="392.1" y2="355.7"/><line x1="369.3" y1="350.7" x2="392.1" y2="350.7"/><line x1="369.3" y1="376.0" x2="392.1" y2="376.0"/><line x1="369.3" y1="370.9" x2="392.1" y2="370.9"/><line x1="369.3" y1="365.8" x2="392.1" y2="365.8"/><line x1="369.3" y1="360.8" x2="392.1" y2="360.8"/><line x1="369.3" y1="391.1" x2="392.1" y2="391.1"/><line x1="369.3" y1="386.1" x2="392.1" y2="386.1"/><line x1="369.3" y1="381.0" x2="392.1" y2="381.0"/><line x1="283.3" y1="382.7" x2="283.3" y2="384.4"/><line x1="283.3" y1="382.7" x2="281.6" y2="382.7"/><line x1="283.3" y1="365.8" x2="281.6" y2="365.8"/><polyline fill="none" points="283.3,382.7 300.1,382.7 283.3,365.8"/><line x1="285.0" y1="386.1" x2="330.5" y2="386.1"/><line x1="283.3" y1="384.4" x2="365.9" y2="384.4"/><line x1="332.2" y1="386.1" x2="354.1" y2="386.1"/><polyline fill="none" points="125.4,360.5 124.6,361.4 125.4,362.2 126.2,361.4"/><line x1="125.8" y1="361.0" x2="136.3" y2="350.5"/><line x1="125.4" y1="360.5" x2="135.9" y2="350.0"/><line x1="126.2" y1="361.4" x2="136.7" y2="350.9"/><polyline fill="none" points="136.7,349.2 135.9,350.0 136.7,350.9 137.6,350.0"/><line x1="285.0" y1="386.1" x2="285.0" y2="419.8"/><line x1="281.6" y1="382.7" x2="281.6" y2="419.8"/><line x1="365.9" y1="386.1" x2="365.9" y2="420.7"/><line x1="354.1" y1="428.3" x2="354.1" y2="386.1"/><line x1="355.8" y1="426.6" x2="355.8" y2="386.1"/><polyline fill="none" points="330.5,417.3 316.2,417.3 330.5,403.8"/><line x1="355.8" y1="386.1" x2="364.2" y2="426.6"/><line x1="330.5" y1="403.8" x2="330.5" y2="386.1"/><line x1="332.2" y1="403.8" x2="332.2" y2="386.1"/><line x1="426.6" y1="386.1" x2="426.6" y2="420.7"/><line x1="83.0" y1="580.9" x2="83.0" y2="562.3"/><line x1="81.3" y1="615.5" x2="81.3" y2="582.6"/><line x1="83.0" y1="615.5" x2="83.0" y2="580.9"/><line x1="70.3" y1="580.9" x2="70.3" y2="562.3"/><line x1="83.0" y1="562.3" x2="70.3" y2="580.9"/><line x1="70.3" y1="562.3" x2="83.0" y2="562.3"/><line x1="70.3" y1="580.9" x2="83.0" y2="580.9"/><line x1="68.6" y1="582.6" x2="81.3" y2="582.6"/><line x1="83.0" y1="525.2" x2="83.0" y2="521.0"/><line x1="79.6" y1="521.9" x2="79.6" y2="521.0"/><line x1="79.6" y1="513.4" x2="79.6" y2="514.3"/><line x1="83.0" y1="510.0" x2="83.0" y2="514.3"/><line x1="75.4" y1="521.9" x2="75.4" y2="513.4"/><line x1="72.0" y1="525.2" x2="72.0" y2="510.0"/><line x1="77.0" y1="525.2" x2="77.0" y2="559.0"/><line x1="73.6" y1="525.2" x2="73.6" y2="559.0"/><line x1="72.7" y1="525.2" x2="72.7" y2="559.0"/><line x1="73.2" y1="525.2" x2="73.2" y2="559.0"/><polyline fill="none" points="77.0,514.3 83.0,514.3 83.0,521.0 77.0,521.0"/><line x1="75.4" y1="513.4" x2="79.6" y2="513.4"/><line x1="72.0" y1="510.0" x2="83.0" y2="510.0"/><line x1="72.0" y1="525.2" x2="83.0" y2="525.2"/><line x1="75.4" y1="521.9" x2="79.6" y2="521.9"/><line x1="66.9" y1="559.0" x2="83.0" y2="559.0"/><line x1="83.0" y1="562.3" x2="83.0" y2="559.0"/><line x1="83.0" y1="472.9" x2="83.0" y2="476.3"/><line x1="83.0" y1="454.4" x2="83.0" y2="472.9"/><line x1="70.3" y1="454.4" x2="70.3" y2="472.9"/><line x1="66.9" y1="476.3" x2="83.0" y2="476.3"/><line x1="83.0" y1="472.9" x2="70.3" y2="454.4"/><line x1="70.3" y1="454.4" x2="83.0" y2="454.4"/><line x1="68.6" y1="452.7" x2="81.3" y2="452.7"/><line x1="70.3" y1="472.9" x2="83.0" y2="472.9"/><line x1="90.4" y1="403.6" x2="83.6" y2="396.7"/><line x1="94.0" y1="402.4" x2="89.6" y2="398.0"/><line x1="91.3" y1="396.3" x2="89.6" y2="398.0"/><line x1="81.0" y1="413.1" x2="90.4" y2="403.6"/><line x1="83.0" y1="413.5" x2="94.0" y2="402.4"/><polyline fill="none" points="77.0,413.1 83.0,413.1 83.0,419.8 77.0,419.8"/><line x1="83.6" y1="396.7" x2="68.6" y2="411.7"/><line x1="68.6" y1="411.7" x2="68.6" y2="452.7"/><line x1="66.9" y1="411.0" x2="66.9" y2="476.3"/><line x1="81.3" y1="419.8" x2="81.3" y2="452.7"/><line x1="83.0" y1="419.8" x2="83.0" y2="454.4"/><line x1="77.0" y1="510.0" x2="77.0" y2="476.3"/><line x1="73.6" y1="510.0" x2="73.6" y2="476.3"/><line x1="72.7" y1="510.0" x2="72.7" y2="476.3"/><line x1="73.2" y1="510.0" x2="73.2" y2="476.3"/><line x1="66.9" y1="580.9" x2="66.9" y2="454.4"/><polyline fill="none" points="102.7,383.2 101.9,384.0 102.7,384.9 103.6,384.0"/><polyline fill="none" points="114.1,371.9 113.2,372.7 114.1,373.5 114.9,372.7"/><line x1="103.1" y1="383.6" x2="113.6" y2="373.1"/><line x1="102.7" y1="383.2" x2="113.2" y2="372.7"/><line x1="103.6" y1="384.0" x2="114.1" y2="373.5"/><line x1="84.1" y1="391.5" x2="85.3" y2="392.7"/><line x1="91.4" y1="394.5" x2="101.9" y2="384.0"/><line x1="86.4" y1="391.5" x2="66.9" y2="411.0"/><line x1="86.4" y1="391.5" x2="91.3" y2="396.3"/><line x1="91.8" y1="395.0" x2="102.3" y2="384.5"/><line x1="92.2" y1="395.4" x2="102.7" y2="384.9"/><polyline fill="none" points="91.4,394.5 90.6,395.4 91.4,396.2 92.2,395.4"/><line x1="114.5" y1="372.3" x2="125.0" y2="361.8"/><line x1="114.1" y1="371.9" x2="124.6" y2="361.4"/><line x1="114.9" y1="372.7" x2="125.4" y2="362.2"/><polyline fill="none" points="430.9,595.3 430.9,581.8 444.4,595.3"/><line x1="509.3" y1="384.4" x2="426.6" y2="384.4"/><path fill="none" d="M 629.5 217.9 A 234.1 234.1 0 0 0 629.5 217.5"/><line x1="421.6" y1="428.3" x2="440.1" y2="428.3"/><line x1="436.8" y1="386.1" x2="426.6" y2="386.1"/><line x1="426.6" y1="405.5" x2="432.4" y2="405.5"/><line x1="426.6" y1="403.8" x2="432.0" y2="403.8"/><line x1="426.6" y1="407.2" x2="432.7" y2="407.2"/><line x1="426.6" y1="408.9" x2="433.1" y2="408.9"/><line x1="426.6" y1="410.6" x2="433.4" y2="410.6"/><line x1="426.6" y1="412.3" x2="433.8" y2="412.3"/><line x1="426.6" y1="413.9" x2="434.1" y2="413.9"/><line x1="426.6" y1="415.6" x2="434.5" y2="415.6"/><line x1="426.6" y1="417.3" x2="434.8" y2="417.3"/><line x1="426.6" y1="419.0" x2="435.2" y2="419.0"/><line x1="426.6" y1="402.1" x2="431.7" y2="402.1"/><line x1="426.6" y1="400.4" x2="431.3" y2="400.4"/><line x1="426.6" y1="398.8" x2="431.0" y2="398.8"/><line x1="428.3" y1="386.1" x2="436.8" y2="426.6"/><line x1="428.3" y1="426.6" x2="436.8" y2="426.6"/><line x1="428.3" y1="420.7" x2="435.5" y2="420.7"/><line x1="428.3" y1="422.4" x2="435.9" y2="422.4"/><line x1="428.3" y1="424.1" x2="436.2" y2="424.1"/><line x1="428.3" y1="425.8" x2="436.6" y2="425.8"/><line x1="436.8" y1="539.6" x2="426.6" y2="539.6"/><line x1="437.6" y1="473.0" x2="426.6" y2="473.0"/><line x1="460.4" y1="523.6" x2="428.3" y2="523.6"/><line x1="436.8" y1="537.9" x2="428.3" y2="537.9"/><line x1="460.4" y1="524.4" x2="428.3" y2="524.4"/><line x1="460.4" y1="526.1" x2="428.3" y2="526.1"/><polyline fill="none" points="364.2,623.1 371.0,623.1 371.0,629.8 364.2,629.8"/><polyline fill="none" points="77.0,615.5 83.0,615.5 83.0,622.2 77.0,622.2"/><polyline fill="none" points="279.0,622.2 285.8,622.2 285.8,630.7 279.0,630.7"/><polyline fill="none" points="325.4,623.1 332.2,623.1 332.2,629.8 325.4,629.8"/><polyline fill="none" points="351.6,624.8 351.6,607.9 334.7,624.8"/><polyline fill="none" points="421.6,623.1 428.3,623.1 428.3,629.8 421.6,629.8"/><polyline fill="none" points="460.4,623.1 467.1,623.1 467.1,629.8 460.4,629.8"/><polyline fill="none" points="506.8,622.2 513.5,622.2 513.5,630.7 506.8,630.7"/><polyline fill="none" points="615.2,622.2 607.6,622.2 607.6,630.7 615.2,630.7"/><polyline fill="none" points="715.5,623.1 709.6,623.1 709.6,629.8 715.5,629.8"/><line x1="725.6" y1="631.9" x2="725.6" y2="566.6"/><line x1="724.0" y1="631.2" x2="724.0" y2="590.2"/><line x1="66.9" y1="624.3" x2="66.9" y2="559.0"/><line x1="68.6" y1="623.6" x2="68.6" y2="582.6"/><line x1="474.7" y1="322.0" x2="474.7" y2="323.7"/><line x1="491.6" y1="322.0" x2="491.6" y2="323.7"/><line x1="491.6" y1="323.7" x2="467.1" y2="323.7"/><line x1="491.6" y1="322.0" x2="467.1" y2="322.0"/><line x1="464.6" y1="225.0" x2="464.6" y2="319.5"/><line x1="462.9" y1="225.0" x2="462.9" y2="319.5"/><line x1="442.7" y1="323.7" x2="428.3" y2="323.7"/><line x1="442.7" y1="322.0" x2="428.3" y2="322.0"/><line x1="442.7" y1="322.0" x2="442.7" y2="323.7"/><polyline fill="none" points="459.5,322.0 459.5,305.1 442.7,322.0"/><line x1="397.1" y1="319.5" x2="397.1" y2="224.6"/><line x1="395.4" y1="319.5" x2="395.4" y2="224.6"/><polyline fill="none" points="333.0,322.0 333.0,305.1 349.9,322.0"/><line x1="349.9" y1="322.0" x2="349.9" y2="323.7"/><line x1="349.9" y1="322.0" x2="364.2" y2="322.0"/><line x1="349.9" y1="323.7" x2="364.2" y2="323.7"/><line x1="329.7" y1="225.0" x2="329.7" y2="319.5"/><line x1="328.0" y1="225.0" x2="328.0" y2="319.5"/><line x1="317.8" y1="322.0" x2="317.8" y2="323.7"/><line x1="285.8" y1="322.0" x2="325.4" y2="322.0"/><line x1="285.8" y1="323.7" x2="325.4" y2="323.7"/><line x1="301.0" y1="322.0" x2="301.0" y2="323.7"/><line x1="328.0" y1="825.5" x2="328.0" y2="731.0"/><line x1="329.7" y1="825.5" x2="329.7" y2="731.0"/><line x1="349.9" y1="726.8" x2="364.2" y2="726.8"/><line x1="349.9" y1="728.5" x2="364.2" y2="728.5"/><line x1="349.9" y1="728.5" x2="349.9" y2="726.8"/><polyline fill="none" points="333.0,728.5 333.0,745.4 349.9,728.5"/><line x1="317.8" y1="728.5" x2="317.8" y2="726.8"/><line x1="301.0" y1="728.5" x2="301.0" y2="726.8"/><line x1="285.8" y1="726.8" x2="325.4" y2="726.8"/><line x1="285.8" y1="728.5" x2="325.4" y2="728.5"/><line x1="395.4" y1="731.0" x2="395.4" y2="825.9"/><line x1="397.1" y1="731.0" x2="397.1" y2="825.9"/><line x1="462.9" y1="825.5" x2="462.9" y2="731.0"/><line x1="464.6" y1="825.5" x2="464.6" y2="731.0"/><line x1="442.7" y1="728.5" x2="442.7" y2="726.8"/><line x1="442.7" y1="728.5" x2="428.3" y2="728.5"/><line x1="442.7" y1="726.8" x2="428.3" y2="726.8"/><polyline fill="none" points="459.5,728.5 459.5,745.4 442.7,728.5"/><line x1="491.6" y1="728.5" x2="467.1" y2="728.5"/><line x1="491.6" y1="726.8" x2="467.1" y2="726.8"/><line x1="491.6" y1="728.5" x2="491.6" y2="726.8"/><line x1="506.8" y1="726.8" x2="491.6" y2="726.8"/><line x1="506.8" y1="728.5" x2="491.6" y2="728.5"/><line x1="474.7" y1="728.5" x2="474.7" y2="726.8"/><line x1="506.8" y1="323.7" x2="491.6" y2="323.7"/><line x1="506.8" y1="322.0" x2="491.6" y2="322.0"/><line x1="615.2" y1="424.7" x2="709.6" y2="424.7"/><line x1="615.2" y1="423.0" x2="709.6" y2="423.0"/><line x1="459.5" y1="728.5" x2="460.4" y2="728.5"/><line x1="460.4" y1="726.8" x2="459.5" y2="726.8"/><line x1="459.5" y1="726.8" x2="459.5" y2="728.5"/><line x1="514.9" y1="840.3" x2="277.7" y2="840.3"/><line x1="277.0" y1="842.0" x2="515.6" y2="842.0"/><line x1="460.4" y1="728.5" x2="460.4" y2="726.8"/><polyline fill="none" points="178.4,614.8 186.0,614.8 186.0,623.2 178.4,623.2"/><polyline fill="none" points="181.4,512.0 188.8,512.0 188.8,520.2 181.4,520.2"/><polyline fill="none" points="181.4,413.4 188.8,413.4 188.8,421.7 181.4,421.7"/></g>
<g data-layer="FanCoil" stroke="#333" fill="none" stroke-width="1"><polyline fill="none" points="290.6,329.9 290.6,363.0 283.3,363.0 283.3,329.9"/><line x1="290.6" y1="329.9" x2="283.3" y2="363.0"/><line x1="290.6" y1="363.0" x2="283.3" y2="329.9"/><text data-tag="200" x="283.9" y="331.6" font-size="11">200</text></g>
<g data-layer="FanCoil-Num" stroke="#333" fill="none" stroke-width="1"><circle fill="none" cx="300.6" cy="340.6" r="8.5"/><text data-tag="#4" x="295.1" y="344.4" font-size="11">#4</text></g>
<g data-layer="N-Sign" stroke="#333" fill="none" stroke-width="1"></g>
<g data-layer="CenterLine" stroke="#333" fill="none" stroke-width="1"><line x1="396.3" y1="158.1" x2="396.3" y2="888.7"/><line x1="769.1" y1="525.3" x2="17.3" y2="525.3"/><polyline fill="none" points="0.0,900.0 792.6,900.0 792.6,150.5 0.0,150.5"/><line x1="396.3" y1="150.5" x2="396.3" y2="900.0"/><line x1="792.6" y1="525.3" x2="0.0" y2="525.3"/></g>
<g data-layer="Text" stroke="#333" fill="none" stroke-width="1"></g>
<g data-layer="Partition" stroke="#333" fill="none" stroke-width="1"><line x1="606.3" y1="322.0" x2="549.7" y2="322.0"/><line x1="606.3" y1="323.7" x2="549.7" y2="323.7"/><line x1="534.5" y1="322.0" x2="534.5" y2="323.7"/><line x1="549.7" y1="322.0" x2="549.7" y2="323.7"/><line x1="534.5" y1="322.0" x2="513.5" y2="322.0"/><line x1="534.5" y1="323.7" x2="513.5" y2="323.7"/><polyline fill="none" points="535.2,323.6 535.2,310.1 548.7,323.6"/><line x1="709.6" y1="627.4" x2="615.2" y2="627.4"/><line x1="566.3" y1="423.0" x2="607.6" y2="423.0"/><line x1="709.6" y1="625.7" x2="615.2" y2="625.7"/><line x1="568.0" y1="424.7" x2="607.6" y2="424.7"/><line x1="615.2" y1="424.7" x2="709.6" y2="424.7"/><line x1="615.2" y1="423.0" x2="709.6" y2="423.0"/><line x1="607.6" y1="625.7" x2="568.0" y2="625.7"/><line x1="607.6" y1="627.4" x2="566.3" y2="627.4"/><line x1="592.4" y1="526.0" x2="566.3" y2="526.0"/><line x1="592.4" y1="524.4" x2="566.3" y2="524.4"/><line x1="568.0" y1="541.2" x2="566.3" y2="541.2"/><line x1="568.0" y1="509.2" x2="566.3" y2="509.2"/><line x1="568.0" y1="509.2" x2="568.0" y2="424.7"/><line x1="566.3" y1="509.2" x2="566.3" y2="423.0"/><line x1="566.3" y1="526.0" x2="566.3" y2="524.4"/><polyline fill="none" points="592.4,524.4 592.4,526.0"/><polyline fill="none" points="566.3,526.6 580.7,526.6 566.3,540.9"/><polyline fill="none" points="566.3,524.0 580.7,524.0 566.3,509.6"/><polyline fill="none" points="606.5,525.7 606.5,512.4 593.2,525.7"/><line x1="568.0" y1="625.7" x2="568.0" y2="541.2"/><line x1="566.3" y1="627.4" x2="566.3" y2="541.2"/><polyline fill="none" points="553.2,628.1 567.5,628.1 553.2,642.5"/><polyline fill="none" points="566.3,422.6 580.7,422.6 566.3,408.2"/><line x1="566.3" y1="696.7" x2="566.3" y2="726.8"/><line x1="566.3" y1="407.8" x2="566.3" y2="323.7"/><polyline fill="none" points="530.4,728.5 530.4,745.4 513.5,728.5"/><line x1="530.4" y1="726.8" x2="606.3" y2="726.8"/><line x1="568.0" y1="407.8" x2="566.3" y2="407.8"/><line x1="568.0" y1="407.8" x2="568.0" y2="323.7"/><line x1="530.4" y1="726.8" x2="530.4" y2="728.5"/><line x1="615.2" y1="622.2" x2="615.2" y2="572.7"/><line x1="530.4" y1="728.5" x2="606.3" y2="728.5"/><line x1="615.2" y1="572.7" x2="568.0" y2="572.7"/><line x1="260.6" y1="614.8" x2="84.0" y2="614.8"/><line x1="178.4" y1="616.6" x2="84.0" y2="616.6"/><line x1="260.4" y1="638.7" x2="260.4" y2="683.1"/><line x1="214.9" y1="616.6" x2="214.9" y2="671.9"/><line x1="216.5" y1="616.6" x2="216.5" y2="671.3"/><line x1="262.1" y1="638.7" x2="262.1" y2="683.1"/><line x1="260.6" y1="616.6" x2="186.0" y2="616.6"/><line x1="262.1" y1="683.1" x2="282.6" y2="683.1"/><line x1="260.4" y1="684.7" x2="282.6" y2="684.7"/><line x1="227.7" y1="684.7" x2="245.8" y2="684.7"/><line x1="228.3" y1="683.1" x2="245.7" y2="683.1"/><line x1="214.9" y1="671.9" x2="227.7" y2="684.7"/><line x1="216.5" y1="671.3" x2="228.3" y2="683.1"/><line x1="254.1" y1="802.1" x2="283.5" y2="772.8"/><line x1="253.0" y1="800.9" x2="281.8" y2="772.1"/><line x1="281.8" y1="732.0" x2="281.8" y2="772.1"/><line x1="283.5" y1="732.0" x2="283.5" y2="772.8"/><polyline fill="none" points="260.4,623.5 245.3,623.5 260.4,638.7"/><line x1="262.3" y1="586.9" x2="289.4" y2="586.9"/><line x1="260.6" y1="585.3" x2="289.4" y2="585.3"/><line x1="262.3" y1="623.0" x2="262.3" y2="586.9"/><line x1="260.6" y1="624.7" x2="260.6" y2="585.3"/><polyline fill="none" points="261.0,684.7 261.0,699.9 245.8,684.7"/><line x1="245.7" y1="683.1" x2="245.7" y2="684.7"/><line x1="318.3" y1="318.6" x2="318.3" y2="320.3"/><line x1="301.8" y1="318.6" x2="301.8" y2="320.3"/><line x1="183.2" y1="320.3" x2="280.5" y2="320.3"/><line x1="287.1" y1="320.3" x2="301.8" y2="320.3"/><line x1="318.3" y1="320.3" x2="325.6" y2="320.3"/><line x1="190.2" y1="318.6" x2="280.5" y2="318.6"/><line x1="287.1" y1="318.6" x2="301.8" y2="318.6"/><line x1="318.3" y1="318.6" x2="325.6" y2="318.6"/><polyline fill="none" points="318.3,318.6 318.3,302.2 301.8,318.6"/><polyline fill="none" points="188.8,511.0 188.8,513.4 181.4,513.4 181.4,505.2 188.8,505.2 188.8,511.0"/><polyline fill="none" points="181.4,436.1 188.8,436.1 188.8,428.7"/><polyline fill="none" points="181.4,436.0 181.4,427.0 254.8,427.0"/><line x1="181.4" y1="426.2" x2="181.4" y2="446.0"/><line x1="181.4" y1="459.1" x2="181.4" y2="461.0"/><line x1="183.0" y1="426.2" x2="183.0" y2="445.9"/><line x1="183.0" y1="459.1" x2="183.0" y2="464.0"/><line x1="188.8" y1="428.7" x2="256.5" y2="428.7"/><line x1="181.4" y1="462.2" x2="181.4" y2="464.0"/><line x1="181.4" y1="477.1" x2="181.4" y2="492.6"/><line x1="183.0" y1="461.0" x2="183.0" y2="464.0"/><line x1="183.0" y1="478.8" x2="183.0" y2="495.4"/><line x1="183.0" y1="513.4" x2="183.0" y2="526.2"/><polyline fill="none" points="183.0,464.0 169.0,464.0 183.0,477.2"/><line x1="181.4" y1="482.8" x2="181.4" y2="508.1"/><line x1="89.4" y1="462.2" x2="181.4" y2="462.2"/><line x1="89.4" y1="460.5" x2="181.4" y2="460.5"/><line x1="188.8" y1="427.0" x2="188.6" y2="427.0"/><line x1="282.8" y1="366.2" x2="274.5" y2="366.2"/><line x1="282.8" y1="367.9" x2="274.5" y2="367.9"/><line x1="256.5" y1="367.9" x2="256.5" y2="428.7"/><line x1="254.8" y1="366.2" x2="254.8" y2="427.0"/><polyline fill="none" points="183.0,459.1 169.0,459.1 183.0,445.9"/><line x1="204.4" y1="477.2" x2="204.4" y2="456.4"/><line x1="204.4" y1="459.7" x2="204.4" y2="459.1"/><line x1="206.0" y1="478.8" x2="206.0" y2="458.0"/><line x1="206.0" y1="459.7" x2="206.0" y2="458.0"/><line x1="204.4" y1="459.1" x2="204.4" y2="456.4"/><line x1="204.4" y1="456.4" x2="206.0" y2="456.4"/><line x1="220.8" y1="456.4" x2="276.8" y2="456.4"/><line x1="220.7" y1="458.0" x2="289.3" y2="458.0"/><line x1="131.5" y1="364.0" x2="183.0" y2="415.4"/><line x1="130.4" y1="365.1" x2="181.4" y2="416.1"/><polyline fill="none" points="274.5,366.2 258.1,382.6"/><line x1="258.1" y1="382.6" x2="258.1" y2="366.2"/><polyline fill="none" points="207.6,456.4 207.6,470.4 220.8,456.4"/><polyline fill="none" points="280.6,583.4 280.6,567.0 264.1,583.4"/></g>
<g data-layer="Location" stroke="#333" fill="none" stroke-width="1"></g>
<g data-layer="FanCoil-Text" stroke="#333" fill="none" stroke-width="1"></g>
</svg>